<?xml version="1.0" encoding="utf-8"?>
<!-- Generator: Adobe Illustrator 18.0.0, SVG Export Plug-In . SVG Version: 6.00 Build 0)  -->
<!DOCTYPE svg PUBLIC "-//W3C//DTD SVG 1.1//EN" "http://www.w3.org/Graphics/SVG/1.1/DTD/svg11.dtd">
<svg version="1.1" id="Layer_1" xmlns="http://www.w3.org/2000/svg" xmlns:xlink="http://www.w3.org/1999/xlink" x="0px" y="0px"
	 viewBox="0 0 651 330" enable-background="new 0 0 651 330" xml:space="preserve">
<g transform="translate(0.000000,330.000000) scale(0.100000,-0.100000)">
	<path fill="#C90606" d="M2107,3231c-40-174-122-274-426-516c-171-137-231-194-286-275c-43-62-48-75-53-139c-8-122,42-225,191-393
		c74-82,229-228,212-198c-4,8-48,75-98,149c-112,167-138,224-145,312c-11,159,59,273,278,455c172,143,285,274,345,399
		c35,73,59,178,53,236c-2,28-7,35-29,37C2124,3301,2122,3297,2107,3231z"/>
	<path fill="#C90606" d="M2360,2755c-203-74-358-164-463-271c-77-78-111-148-115-241c-6-103,21-173,113-302c41-58,78-120,81-138
		c11-58-2-121-35-174l-31-50l43,29c93,65,170,169,183,249c9,61-10,112-90,231c-83,123-101,179-85,251c24,106,168,242,412,391
		c48,29,87,55,87,57C2460,2791,2467,2793,2360,2755z"/>
	<path fill="#C90606" d="M3420,1680c0-327-4-507-11-542c-10-45-21-62-76-116l-64-63l30-35c17-19,31-39,31-45s4-6,13,1
		c6,5,41,29,77,52c68,45,119,109,142,176c8,26,13,185,15,550l4,512h-80h-81V1680z"/>
	<path fill="#C90606" d="M3933,1910c-66-10-193-48-193-58c0-4,5-24,11-45c8-29,14-37,27-33c169,52,283,47,337-13c14-16,20-41,23-90
		l4-68l-98-6c-176-11-272-56-318-148c-60-121-14-254,102-294c86-29,184-13,276,45c52,33,66,30,66-17c0-21,4-23,60-23h60v270
		c0,309-6,355-57,410C4178,1901,4056,1930,3933,1910z M4138,1413l-3-98l-55-32c-45-27-64-33-113-33c-51,0-62,4-88,29
		c-24,25-29,38-29,80c0,27,5,61,11,74c22,47,96,74,212,76l68,1L4138,1413z"/>
	<path fill="#C90606" d="M5350,1911c-60-9-157-35-179-50c-10-6-12-20-8-46c3-21,8-39,9-41c2-1,37,6,78,17c140,37,259,18,288-46
		c7-14,12-52,12-84v-58l-97-6c-98-7-165-22-219-50c-34-18-86-71-104-107c-17-33-18-158-1-190c65-122,256-147,389-50
		c23,16,46,30,52,30c5,0,10-16,10-35v-35h61h60l-3,303l-3,302l-27,47C5620,1893,5498,1931,5350,1911z M5548,1413l-3-97l-45-30
		c-36-25-58-31-112-34c-60-4-69-2-92,21c-46,46-47,144-1,187c32,30,103,48,188,49l68,1L5548,1413z"/>
	<path fill="#C90606" d="M4390,1898c0-2,51-167,113-368l113-365l96-3l95-3l36,83c70,165,129,355,176,571l19,87h-78h-78l-17-97
		c-31-178-119-493-137-493c-4,0-10,12-14,28c-15,70-47,182-99,347c-32,99-59,188-62,198c-5,14-18,17-84,17
		C4425,1900,4390,1899,4390,1898z"/>
	<path fill="#0468B2" d="M2617,1676c-26-7-49-15-51-17c-3-2,31-4,74-4c71,0,82-3,122-30c90-63,114-187,55-285
		c-47-80-174-192-275-244c-19-10-32-19-30-22c14-13,232,85,298,134c56,42,118,111,140,156c30,64,27,147-7,203c-28,44-100,99-144,109
		C2746,1689,2662,1689,2617,1676z"/>
	<path fill="#0468B2" d="M1265,1653c-188-26-445-124-445-168c0-9,20-24,45-35c205-88,932-90,1345-4c69,14,186,61,176,71
		c-2,2-95-7-207-21c-412-52-980-57-1097-11c-93,37-38,81,198,159C1325,1658,1321,1661,1265,1653z"/>
	<path fill="#0468B2" d="M1162,1245c-90-49-102-77-49-117c50-38,117-58,255-79c227-34,523-20,792,36c177,38,169,32,102,72
		c-31,20-61,36-67,36c-5,0-75-11-155-24c-127-21-178-24-410-24c-270,1-358,10-408,42c-20,12-23,20-17,49c3,19,5,34,3,34
		C1206,1269,1186,1258,1162,1245z"/>
	<path fill="#0468B2" d="M1237,883c-67-37-73-66-21-109c79-67,270-109,489-109c155,1,288,20,430,61c140,40,139,39,43,86l-83,40
		l-100-19c-78-14-149-18-320-18c-287,0-378,17-387,72l-3,22L1237,883z"/>
	<path fill="#FF0000" d="M3287,843c-4-3-7-118-7-255V340h1315h1315v255v255H4602C3882,850,3290,847,3287,843z M3976,678
		c29-32,34-45,34-87c0-54-22-91-70-116c-39-20-208-20-255-1c-92,39-99,172-12,227c28,17,46,19,150,17l119-3L3976,678z M4311,691
		c47-48,34-111-29-139l-38-17l37-30c47-37,48-45,7-45c-26,0-49,14-105,63l-71,62l61,3c105,4,130,19,107,63c-9,17-22,19-100,19h-90
		V564V459l-27,3l-28,3l-3,114c-1,63,0,121,2,128c4,10,36,13,126,13C4281,720,4282,720,4311,691z M4626,592c81-125,81-127,56-130
		c-19-3-32,4-47,22c-18,23-28,26-85,26c-55,0-67,3-78,20c-16,26,0,33,63,28c25-2,45,0,45,4s-13,28-29,53l-29,46l-62-100
		c-56-91-65-101-91-101c-16,0-29,2-29,5c0,2,20,35,43,72c24,37,60,94,80,126C4519,750,4529,746,4626,592z M4980,713c0-5-7-16-14-25
		c-11-15-29-18-97-18c-96,0-124-12-134-59c-8-38,17-89,48-96c12-3,64-6,115-8l92-2l-15-22c-15-21-24-23-106-23c-103,0-139,13-169,63
		c-38,61-18,140,43,177c26,16,50,20,135,20C4934,720,4980,717,4980,713z M5060,615V510h115h115l-16-25c-17-25-18-26-138-23l-121,3
		l-3,128l-3,127h26h25V615z M5568,698c-14-21-25-23-104-26c-74-2-92-6-111-24c-13-12-23-25-23-30s52-8,115-6c114,3,131-2,103-30
		c-8-8-48-12-115-12c-57,0-103-4-103-9s12-19,26-30c23-18,41-21,125-21c55,0,99-3,99-7c0-5-7-16-15-26c-12-17-26-19-114-15
		c-95,3-101,4-131,33c-17,16-35,46-42,66c-9,32-8,44,11,82c31,64,62,76,190,77h103L5568,698z"/>
	<path fill="#FF0000" d="M3685,645c-29-28-31-54-10-94c19-38,30-41,141-41c87,0,97,2,119,25c16,15,25,36,25,55s-9,40-25,55
		c-22,23-31,25-125,25S3707,668,3685,645z"/>
	<path fill="#0468B2" d="M840,661c-105-29-219-81-256-118c-39-39-41-46-15-72c30-30,109-50,307-76c734-97,1560-41,1878,128
		c67,35,85,62,65,98l-13,24l-7-35c-9-40-24-53-98-81c-209-79-923-130-1393-99c-209,14-313,27-416,51c-109,26-144,45-140,78
		c5,39,94,80,253,114c11,3-7,5-40,5S876,670,840,661z"/>
	<path fill="#0468B2" d="M2930,436c-49-49-318-124-575-161c-248-36-233-35-580-41c-294-6-568,3-685,23c-19,3-32,3-29-1
		c14-15,233-46,387-56c544-33,1065,12,1332,115c71,28,153,83,170,115C2962,453,2951,457,2930,436z"/>
</g>
</svg>
