<?xml version="1.0" encoding="utf-8"?>
<!-- Generator: Adobe Illustrator 18.0.0, SVG Export Plug-In . SVG Version: 6.00 Build 0)  -->
<!DOCTYPE svg PUBLIC "-//W3C//DTD SVG 1.1//EN" "http://www.w3.org/Graphics/SVG/1.1/DTD/svg11.dtd">
<svg version="1.1" id="Layer_1" xmlns="http://www.w3.org/2000/svg" xmlns:xlink="http://www.w3.org/1999/xlink" x="0px" y="0px"
	 viewBox="2704.7 1564.5 769.3 296.5" enable-background="new 2704.7 1564.5 769.3 296.5" xml:space="preserve">
<g transform="translate(0.000000,2480.000000) scale(0.100000,-0.100000)">
	<path fill="#F4DE16" d="M32107.2,9151.4c-15.5-4.3-28.6-13.9-34.6-25.9c-4.7-8.8-5.2-12.4-4.3-28.1c0.9-14.8,3.4-24.1,14.6-54
		c46.1-123,75.6-248.1,92.5-391.4c9-75.8,11.9-130.5,13.5-250.8c0.9-65,2.5-119.9,3.4-122.1c1.1-2.2,3.4-3.6,5.6-2.9
		c25.9,7.6,112.9,28.6,158.8,38.2c118.1,25,255.3,45.2,359.9,53.1c17.3,1.3,35.1,2.7,39.4,3.1c4.3,0.7,23.2,1.8,41.6,2.5
		c18.7,0.9,37.3,1.8,41.6,2.5c4.3,0.4,46.8,1.3,94.5,2.2c76,1.3,181.3-0.9,236.2-4.7c8.1-0.7,29.9-2,48.4-3.4
		c274.9-19.1,582.2-80.8,851.6-171c118.3-39.6,238.9-86.8,301.4-118.1c24.3-12.4,53.8-47.7,47.7-57.1c-1.8-2.7-6.1-3.6-18.9-3.4
		c-13.3,0.2-23.8,2.5-52.6,11.7c-19.8,6.3-55.8,17.1-79.9,24.1c-24.1,6.7-45.2,13-46.6,13.5c-1.8,0.7-7.4-8.1-14.2-22
		c-31.3-63.4-80.8-106.4-133.6-116.1c-58-10.6-129.8,17.5-155,60.5c-20,34.4-16.2,86.2,10.6,140.6l9.2,18.7l-40.5,11.5
		c-54.2,15.5-110.2,26.3-196.8,38.2c-78.1,10.8-196.8,22.5-267.7,26.1c-13,0.7-26.5,1.8-30.4,2.2c-41.2,5.8-421.1,5.8-458,0
		c-2.9-0.5-19.1-1.3-35.8-2c-16.6-0.9-34.4-1.8-39.4-2.5c-4.9-0.5-17.5-1.6-28.1-2.2c-40.9-2.7-100.3-8.3-157.5-14.6
		c-227.2-25.2-432.1-63.7-665.8-124.8c-32.8-8.8-42.1-10.3-55.6-9.7c-18,0.9-14.6-1.1-75.8,43.2c-15.7,11.5-45.2,30.8-65.2,42.7
		c-39.6,23.8-175.5,92.7-187.8,94.9l-7.6,1.6l1.1-9.9c2.2-19.3,26.5-63,79-141.5c29.7-44.8,45.2-66.8,70.9-101.9
		c8.1-10.8,14.2-20,13.7-20.5c-4.7-3.4-102.1-46.6-158.4-70c-160.8-67-278.7-101-344.2-99.2c-27,0.7-33.3,3.1-59.6,22.3
		c-100.6,72.9-181.3,142.4-334,287.3c-125.3,119-166,155.2-184.2,164.7c-49.9,25.4-151.8,27-174.6,2.9l-5.4-5.6l30.8-60.3
		c141.5-278,225.6-577.7,260-926.1c16-160.6,22.7-284.3,24.3-439.8c2-195-5.4-314.7-27.7-445.4c-16.2-96.3-36.4-164.4-65.7-220.9
		c-1.6-3.4,15.7-1.8,29.2,2.9c52.9,17.8,108.2,86.2,158.1,195.5c86.6,189.6,158.4,509.1,209.2,931.1c4.3,36.2,8.5,67,9.4,68.4
		c0.9,1.6,2.5,37.1,3.2,79.2c2,93.1,4.7,112,20.5,138.3c10.6,17.5,22.3,24.1,52.9,29.5c40.3,7,84.4,7.6,140.6,2.2
		c27-2.7,54.9-4.7,61.9-4.7c18.4,0,50.6-7.2,70-15.5c50.4-21.4,99.2-68.8,133.2-128.9c3.8-7.2,7.6-13,8.5-13
		c3.1,0,48.1,31.7,69.7,49.3c47.5,38.9,95.6,87.1,182.7,182.4c122.1,134.3,172.1,180.2,227.2,209c32.8,17.1,49.9,21.6,81,21.6
		c22.5-0.2,27.9-0.9,41.2-6.3c70.9-27.9,117.2-94.9,209.7-304.1c45.4-102.8,60.7-131.6,69.7-131.6c4.3,0,5.4,4.3,9,40.3
		c13,123.7,42.5,229.7,93.1,334.3c10.8,22.3,26.1,51.7,34,65.2c40.3,70.2,108,157,155,198.6l16,14.4l59.2-3.8
		c32.4-2.2,59.2-4,59.4-4.3c0.2-0.2-6.8-11-15.5-23.8c-45.4-66.8-109.8-170.7-146.9-237.3c-68.8-123.5-106-221.3-101.5-268.1
		c1.6-17.8,4-22.7,14.4-27c14.8-6.3,56,0.2,108.9,17.1c24.1,7.9,21.6,4.7,26.5,34c13.3,78.5,51.3,180.4,98.5,264.3
		c44.5,79.4,116.8,166,185.1,222c26.5,21.8,31.3,24.3,46.6,24.3c16.4,0,68.4-13.9,75.4-20.2c1.1-0.9-8.6-14.6-21.4-30.6
		c-81.9-102.1-154.1-211.2-199.3-301.7c-33.7-67-61.2-146.7-61.2-177c0-12.6,8.5-16,39.4-15.7c28.3,0.2,53.8,5.8,76,16.4
		c20,9.7,23.6,14.2,28.6,37.6c13.7,66.1,62.5,150.9,153.9,267.5c44.1,56.2,123.3,146.7,173.7,198.2l20,20.7l61.9-11.9
		c34-6.5,62.3-12.1,62.8-12.1c0.4-0.2-16.6-18.2-38.2-40c-123.3-125.7-215.3-247.7-250.4-332c-22.3-53.5-26.3-92.9-12.4-121.7
		c5.6-11.7,5.6-12.6-3.8-43.4c-11-36.2-24.5-70.4-32.2-81l-6.5-8.8l-32.2-2.9c-105.1-9-213.2-33.3-324.6-72.7
		c-50.4-17.8-98.3-36.9-191.4-76.7c-138.1-58.7-171.4-69.1-226.1-70.2l-32.6-0.7l-7.6-8.8c-9.7-11-31-55.1-54-111.3
		c-60.3-147.3-78.5-190.1-114.3-267.2c-41.8-90-78.5-160.8-132.3-255.3c-34-59.6-37.3-66.4-31.9-66.4c4.7,0,23.6,17.3,101.7,93.1
		c116.3,112.9,175.2,168.3,245.2,229.7c285.5,251,535.1,403.1,741.9,451.9c61.9,14.6,138.3,26.3,323.2,49.7
		c179.3,22.5,259.8,33.5,345.5,47.2c143.1,22.9,269.3,51.7,375.7,85.5c67,21.4,91.8,31.3,95.6,38.7c7.9,14.6-0.4,66.1-18.7,114.9
		l-4.5,11.7l-32.6-44.3c-17.8-24.5-34-45.9-35.5-47.7c-2.7-2.9-10.6-0.2-57.1,19.8c-29.7,12.8-54.9,22.7-56,22.5
		c-1.1-0.5-15.5-17.5-31.7-38c-16.4-20.5-30.6-37.6-31.9-37.8c-1.1-0.4-7.4,2.5-13.9,6.5c-73.3,45.4-87.5,54-89.3,53.3
		c-0.9-0.5-19.1-21.6-40.5-47.2l-38.7-46.3l-53.3,26.5c-29.5,14.6-54.4,27-55.8,27.4c-1.4,0.5-21.6-20-44.8-45.4
		c-23.2-25.4-43-46.3-43.9-46.8c-1.1-0.4-12.8,6.7-26.1,15.7c-13.3,9.2-34.4,23.2-47,31.5l-22.7,14.8l-35.5-51.7l-35.8-51.7
		l-7.9,9.7c-49,58.5-79.4,103.7-82.6,122.8l-1.3,9.4l28.8,18.9c216.2,141,481.6,232.4,808.5,278c126.9,17.8,232.8,26.1,411.2,31.7
		c39.8,1.3,74,2.9,75.8,3.6c1.8,0.9,3.4,2.5,3.4,3.6c0,4.9-59.2,59.8-86.6,80.3c-52.6,39.4-92.5,63.4-165.3,100.1
		c-132.5,66.8-292.2,126.6-525.2,197.1c-169.4,51.1-311.8,90-663.6,181.1c-473.3,122.6-467,120.8-512.7,146.7
		c-74,41.8-134.7,94.5-310.7,268.4c-116.3,115.2-168,162.6-218.2,200.2c-27.4,20.5-59.4,41.4-77.6,50.6
		C32160.5,9154.8,32129.5,9157.5,32107.2,9151.4z"/>
	<path fill="#F4DE16" d="M29147.8,8609.1c-48.8-19.1-108.4-42.5-132-51.7l-43.4-17.1v-583.3v-583.5l131.1,0.2
		c72,0.2,132.3,0.7,133.8,1.3c2,0.7,2.7,32.6,2.7,149.8v148.7l26.8,44.5c14.6,24.5,27.2,43.9,27.9,42.7
		c1.3-2.5,53.1-187.8,99.9-358.3c3.1-11.7,6.5-22.9,7.6-24.7c1.6-2.9,19.1-3.1,139.7-2.5c75.8,0.2,138.3,1.1,138.8,1.6
		c1.1,0.9-5.8,24.5-43.6,147.1c-12.8,41.4-38.5,125.1-56.9,185.6c-18.7,60.7-46.6,151.8-62.3,202.7l-28.3,92.7l54.9,82.8
		c30.1,45.7,72.2,109.1,93.4,141.3c21.4,31.9,38.7,58.5,38.7,58.9s-64.1,0.9-142.4,0.9h-142.4l-28.3-52.2
		c-43.9-80.5-60.5-112-96.7-184l-33.5-66.4l1.3,27.2c0.9,14.8,2.2,48.8,3.4,75.4c2.2,64.1,2.7,555.4,0.7,555.2
		C29237.4,8643.9,29196.6,8628.2,29147.8,8609.1z"/>
	<path fill="#F4DE16" d="M27047.3,7984.8l0.7-610.1l112.5,0.5c61.9,0,121.2,0.2,132.3,0.2h19.6v181.8c0,161.3-1.3,247.2-5.6,395.2
		l-1.1,42.7l12.1-40.9c39.4-132,84.8-265.9,143.7-422.4c36.2-96.3,65.7-174.1,72.7-192.3c1.3-2.9,1.6-2.9,2.7,0
		c0.7,1.8,27.9,74.2,60.5,160.8c60.1,159.3,121.2,337.2,151.6,440.4c16.6,57.1,16.9,56.9,13.7-17.5c-2.7-63-3.8-167.1-3.8-372.1
		V7375l110.2,0.2c60.7,0.2,119.7,0.2,131.1,0.2h20.7v609.6v609.6h-131.1h-131.1l-24.3-67.9c-135-378.1-162-458.9-188.1-563
		c-7.4-29.5-11.2-40.9-12.1-37.1c-26.5,119.7-59.8,220.7-200.2,607.1c-11.9,32.8-21.6,59.8-21.6,60.3s-59.8,0.7-132.7,0.7h-132.7
		L27047.3,7984.8z"/>
	<path fill="#F4DE16" d="M28476.4,8306.5c-92.7-7-180.2-34-262.3-81.2l-19.6-11l20.9-51.1c32.8-81,48.1-117.9,52.4-126.9l3.8-8.5
		l19.1,11.7c65,39.4,122.4,56.9,185.6,56.9c35.8-0.2,50.4-3.4,65.9-14.6c22.5-16.2,27.4-33.3,29-98.8c1.3-46.6,1.1-48.1-2.9-46.3
		c-53.5,21.8-101,30.1-158.1,27.4c-170.1-8.1-256.7-117.6-251.5-317.6c2.7-104.1,25.2-176.6,69.7-224.9
		c43.6-47.5,104.2-69.5,179.1-65.7c54.2,2.7,108,24.3,151.2,60.3c5.8,4.9,11,8.8,11.5,8.8c0.7,0,1.3-10.8,1.6-24.1
		c0-13,0.7-24.3,1.1-24.7c0.5-0.4,58.9-1.1,130.2-1.3l129.6-0.4l0.9,14.6c0.5,8.1,0.7,162.4,0.5,343c-0.5,295.1-0.9,330.9-4.3,352.7
		c-9.9,63.9-31.7,111.3-67.5,146.7C28703.3,8289.9,28603.2,8316,28476.4,8306.5z M28538.2,7777c6.7-2,17.1-5.8,22.7-8.3l10.3-4.3
		l-0.2-90.9l-0.2-91.1l-8.5-5.8c-22.3-15.1-58.3-24.7-85-22.9c-20,1.6-38.7,10.6-48.4,23.4c-18.9,25.2-25.9,90.9-15.3,143.3
		c5.8,30.1,20.7,51.5,40,58.7C28466.2,7783.7,28520.5,7782.4,28538.2,7777z"/>
	<path fill="#F4DE16" d="M30070.1,8306.7c-151.8-13.7-251.9-106.2-294-272.2c-16.4-65.2-22-117.2-22-207c0-70,1.8-94.3,10.3-144.9
		c35.8-211.9,151.8-325,336.1-327.3c141.7-1.8,249,62.1,305.9,182.7c24.5,51.5,39.6,107.1,49.7,182.7c4.7,34,6.7,150.7,3.4,191.2
		c-20.7,252.8-136.5,388.3-337.6,395.7C30105.2,8308.1,30081.8,8307.9,30070.1,8306.7z M30136.9,8077.1
		c10.8-5.2,25.4-20.2,31.9-33.1c12.4-24.3,21.4-71.3,24.7-129.8c2.7-41.6,1.3-157.7-2-191.2c-7.4-76.7-22.9-118.1-50.4-135
		c-10.3-6.3-12.6-6.7-32.6-6.7c-25,0-34.4,3.6-48.1,18.9c-21.4,23.6-32.2,63-37.6,136.5c-3.8,50.8-1.8,195.5,3.2,230.3
		c10.8,74.7,29,106.4,66.6,114.9C30104.3,8084.5,30126.1,8082.2,30136.9,8077.1z"/>
	<path fill="#F4DE16" d="M33984.9,8122.7c-1.1-3.4-1.8-19.8-1.8-36.4c0-27,0.7-31.7,5.4-42.3c17.1-38,71.8-52,111.6-28.6
		c15.5,9,31.9,25.4,43.9,43.4c6.3,9.4,11.2,18.2,11.2,19.6c0,1.1-33.7,11.7-74.9,23.4c-40.9,11.7-79,22.5-84.1,24.1
		C33986.7,8128.8,33986.4,8128.8,33984.9,8122.7z"/>
	<path fill="#F4DE16" d="M28885.1,7209.9c-38.9-10.3-71.3-40.7-88.9-83.2c-15.7-37.8-21.6-68.8-23.4-122.6
		c-1.6-49,1.3-81.2,10.6-118.1c20.7-82.1,66.1-124.4,133.8-124.6c33.5,0,60.1,10.1,83.2,31.9c27.9,26.1,44.8,61,55.6,115.2
		c7,34,7.4,120.3,0.9,155.4c-15.1,82.3-51.1,131.8-106.4,146.2C28934.6,7214.4,28900.8,7214.2,28885.1,7209.9z M28932.8,7132.1
		c19.3-5.8,33.7-27.9,42.3-64.8c4.5-19.1,4.9-27.7,4.9-79.9c0.2-62.3-1.8-80.1-12.6-107.7c-12.8-34.2-42.5-48.1-71.1-33.7
		c-28.1,13.9-40.5,51.1-42.5,128c-1.8,62.1,3.4,101.9,16.6,128.2C28884,7129.6,28905.8,7139.9,28932.8,7132.1z"/>
	<path fill="#F4DE16" d="M30110.6,7209.9c-41.8-11-73.8-42.3-84.4-83c-7.6-29.9-1.8-74.9,13-99.7c14.4-24.3,40.7-46.3,79.2-67
		c40.7-21.8,57.8-34.9,67.9-52c4.9-8.5,5.6-11.7,4.9-27.2c-0.9-15.3-1.8-18.9-7.4-26.1c-9.2-12.4-22.9-17.8-41.6-16.6
		c-21.8,1.1-41.2,11.2-62.1,32.4l-16.4,16.4l-26.1-28.1c-21.1-22.9-25.6-29-24.1-32.2c4-7.4,35.3-35.3,49-43.6
		c22.9-13.9,43-19.8,72.7-21.1c21.8-1.1,29-0.4,44.8,3.6c24.7,6.1,43.9,17.1,60.1,34.6c22.5,24.1,32.4,50.8,32.4,88.2
		c0,40.7-10.6,68.6-35.8,93.6c-16.9,16.9-30.6,26.3-68.8,47.9c-51.3,29.2-64.1,42.5-64.1,67.7c0,17.5,5.2,27.4,18.2,34.4
		c8.5,4.5,12.1,5.2,26.8,4.5c20.9-1.3,31.7-6.5,50.2-24.5l13.7-13.3l25.4,25.2c13.9,13.9,25.4,26.3,25.4,27.7
		c0,4.3-39.6,40.7-51.1,46.8C30186.2,7212.4,30139.8,7217.8,30110.6,7209.9z"/>
	<path fill="#F4DE16" d="M27096.3,6987.4v-219.3h36.2h36l-0.7,138.1c-0.4,76-0.4,138.1-0.2,137.9c0-0.2,4.5-12.1,9.7-26.3
		c5.4-14.2,27-67.9,48.4-119.2c21.1-51.3,42.1-101.7,46.1-111.8l7.6-18.7h37.8h37.8v219.3v219.3h-36.2h-36.4l1.1-138.1l0.9-138.1
		l-15.1,39.6c-8.3,22-32.8,83.9-54.4,137.7l-39.4,97.9l-39.6,0.7l-39.6,0.4V6987.4z"/>
	<path fill="#F4DE16" d="M27523.7,6987.4v-219.3h115.8h115.8l-0.4,37.8l-0.7,37.6l-75.8,0.7l-76,0.5v59.6v59.6l49,0.4l48.8,0.7
		l0.7,36.7l0.5,36.4h-49.5h-49.5v46.1v46.1h73.1h73.1v38.2v38.2h-112.5h-112.5V6987.4z"/>
	<path fill="#F4DE16" d="M27881.8,7169.2l0.7-37.8l45.7-0.7l45.4-0.4v-181.1v-181.1h39.4h39.4v181.1v181.1h45h45v38.2v38.2h-130.5
		h-130.5L27881.8,7169.2z"/>
	<path fill="#F4DE16" d="M28258.2,7201.8c0.7-2.9,9.7-58.3,20.2-123.3c10.3-65,25.6-159,33.5-209.2c8.1-50.2,15.3-93.4,16-96.3
		c1.1-4.9,1.6-5.2,34.4-4.5l33.1,0.7l18.4,91.1c10.1,50.2,22,111.8,26.5,137.2c4.5,25.4,8.8,48.6,9.4,51.7c0.7,3.4,3.6-9,7.6-31.5
		c5.2-29.9,43.6-225.4,48.1-244.5c1.1-5.2,1.8-5.2,35.5-5.2h34.2l8.5,53.5c4.7,29.2,14.6,90.9,22,136.5
		c7.4,45.9,18.9,117.6,25.9,159.7c6.7,42.1,12.8,79.2,13.5,82.8l1.3,6.1h-37.3h-37.1l-1.3-7.2c-2.7-16.4-23.6-183.3-28.1-223.4
		c-2.5-23.4-4.9-44.3-5.2-46.1c-0.4-1.8-3.4,13.9-7,34.9c-5.2,31.5-41.2,219.1-45.2,236.9c-1.1,4.9-1.8,4.9-33.5,4.9h-32.6
		l-2.2-11.7c-12.6-62.3-35.8-184.9-41.8-220c-4-24.1-7.9-42.3-8.5-40.5c-0.7,1.8-2.9,19.6-4.9,39.4c-3.8,38.5-27.7,225.4-29.2,230.1
		c-0.7,2-10.3,2.7-38.2,2.7h-37.1L28258.2,7201.8z"/>
	<path fill="#F4DE16" d="M29215.3,6987.6v-219.5h39.4h39.4v83.2v83.5l12.6-0.7l12.6-0.7l24.7-59.6c13.5-32.8,28.8-70,34-82.6
		l9.4-23.2h43.2h43.2l-4,9.7c-10.1,23.6-70,169.6-70,170.7c0,0.7,5.8,4.7,13,9.2c16.6,10.1,36.4,31,44.1,46.3
		c19.1,37.6,19.8,95.4,1.8,133.8c-14.2,30.1-37.3,50.2-70.9,61.4c-18.4,6.1-18.7,6.1-95.4,7l-77.2,0.7V6987.6z M29364.2,7123.1
		c21.1-9.9,30.6-29.9,28.1-61.2c-1.3-19.6-7-31.7-18.7-41.4c-11-9.2-22.7-11.7-53.5-11.7h-26.1v61v61.2l28.8-1.1
		C29347.6,7128.9,29353.2,7128,29364.2,7123.1z"/>
	<path fill="#F4DE16" d="M29622.5,6987.4v-219.3h39.4h39.4v58.7v58.9l18.4,33.3c10.3,18.4,19.1,33.5,19.8,33.5
		c0.7,0,16.9-41.4,36-92.2l34.6-92.2h44.5c24.7,0,44.3,0.9,43.6,1.8c-4.7,7.9-104.8,270.2-103.9,273.1c0.7,2.9,34.4,63.4,90.7,162.2
		c0.5,0.9-18,1.6-41.4,1.6h-42.3l-18.4-35.5c-10.3-19.3-33.1-62.8-50.6-96.3l-32.2-60.7l0.7,96.3l0.7,96.3h-39.6h-39.4V6987.4z"/>
</g>
</svg>
