<?xml version="1.0" encoding="utf-8"?>
<!-- Generator: Adobe Illustrator 18.0.0, SVG Export Plug-In . SVG Version: 6.00 Build 0)  -->
<!DOCTYPE svg PUBLIC "-//W3C//DTD SVG 1.1//EN" "http://www.w3.org/Graphics/SVG/1.1/DTD/svg11.dtd">
<svg version="1.1" id="Layer_1" xmlns="http://www.w3.org/2000/svg" xmlns:xlink="http://www.w3.org/1999/xlink" x="0px" y="0px"
	 viewBox="1802.9 337.3 196.9 36.8" enable-background="new 1802.9 337.3 196.9 36.8" xml:space="preserve">
<g transform="translate(0.000000,375.000000) scale(0.100000,-0.100000)">
	<path fill="#F4081F" d="M18195.8,375.8c-31.7-3.1-62.1-14.4-89.3-33.4c-11.9-8.3-34.7-31-43.4-43.3c-8.7-12.3-20.2-35.2-24.6-49.3
		c-12.4-38.5-12.2-77.7,0.4-115.6c22.2-66.6,79.9-114.4,149.4-124c56.9-7.9,114.4,11.4,155.2,52.2c28.8,28.9,46.6,64.7,52.4,105.8
		c2,13.7,1.4,43.2-1,55.9c-7.4,39.7-23.6,70.6-51.8,98.7c-16,16-27.3,24.2-46.3,33.8C18264.7,372.6,18230.8,379.1,18195.8,375.8z
		 M18187.5,238.5c13.7-45.5,25.1-83,25.5-83.5c0.3-0.4,12.1,37.4,26.1,84c14.1,46.6,25.8,84.7,26.1,84.7c0.4,0,15.4-48.4,33.5-107.5
		c18-59.2,33-108.2,33.2-108.8c0.4-1-1.2-1.3-5.9-1.3h-6.5l-1.5,5.6c-4.4,16-12.3,38.1-17.1,47.8c-9.7,19.6-21.5,28.8-36.6,28.8
		c-9.2,0.1-14-2-21.8-9.1c-7.6-7-14.6-17.4-22.5-33.8l-6.7-13.9l-6.4,13.4c-10.7,22.2-20.7,35.1-31.6,40.8c-7.4,3.7-17.5,3.7-26-0.2
		c-15.9-7.3-28.9-30.1-39.2-68.7l-2.9-10.6h-6.3h-6.2l0.7,2.7c0.3,1.5,14.2,47.1,30.6,101.2c16.5,54.2,31.2,102.2,32.6,106.8
		c2,6.6,2.8,8,3.3,6.4C18162.4,322.1,18173.9,284,18187.5,238.5z"/>
	<path fill="#F4081F" d="M18834,256.1c-17.5-2.7-32.1-8.2-46.1-17.2c-32.1-21-44.5-50.9-31.9-77.5c8.2-17.3,28.3-29.6,55.6-34.2
		c12-2.1,37-1.6,49.1,0.9c56.5,11.6,91.8,57.1,73.5,94.6c-8.7,17.8-28.5,29.3-58.6,34C18866.8,258.1,18844.5,257.8,18834,256.1z
		 M18868.6,224.4c7.4-2.4,14.1-7,17.1-11.7c2-3.2,2.3-5,2.3-13.1c0-8.5-0.3-9.9-3.2-16.1c-8.4-17.6-29.5-29.3-50.4-27.8
		c-17.9,1.3-28,9.3-29.2,23.1c-1.3,14.3,8.4,32.7,21.3,40.7C18836.4,225.8,18856.7,228.1,18868.6,224.4z"/>
	<path fill="#F4081F" d="M19190.5,256.1c-25.1-3.8-46.9-14.7-63.2-31.3c-13.3-13.6-19.6-27.2-19.6-42.4
		c0.1-24.3,15.7-42.3,44.8-51.6c20.9-6.7,52-6.7,75.7,0c4,1.2,12.7,4.6,19.2,7.8c39.3,19.1,57.7,54.9,43.4,84.2
		c-8.8,17.7-28.9,29.4-58.4,33.9C19222.9,258.1,19201.1,257.8,19190.5,256.1z M19223.8,224.7c7.7-2,16-7.7,18.6-12.8
		c1.7-3.2,2.1-5.7,2.1-12.8c0-8.2-0.3-9.5-3.3-15.8c-8.7-17.8-29.5-29.2-50.3-27.7c-22.1,1.6-32.9,14.4-28.7,34
		c2.4,10.9,11.5,24.2,20.6,29.8C19192.5,225.5,19211.4,227.9,19223.8,224.7z"/>
	<path fill="#F4081F" d="M19584.6,257.1c-1.4-0.2-5.8-0.9-9.8-1.5c-10.9-1.6-21.9-5.3-33.7-11.4c-28.8-15-46.1-38-46.1-61.8
		c0-25.7,18.2-44.8,50.7-53.3c19.7-5.1,49-4.2,71.2,2.2c17.9,5.1,36.1,16.2,48,29.1c22.9,25.2,24.1,56.6,2.7,76.4
		c-7.4,7-22,14.1-35.6,17.5c-8.8,2.2-13,2.6-27.6,2.9C19594.9,257.4,19586,257.4,19584.6,257.1z M19612.9,224.1
		c7.8-2.5,14-7.1,16.8-12.7c2-3.8,2.3-5.5,2-13.4c-0.5-11.5-3.4-18-12.5-27.1c-12.4-12.4-30.9-18.1-47.6-14.6
		c-17.2,3.6-25.1,14.7-22.4,31.4C19553.9,216.4,19583.3,233.2,19612.9,224.1z"/>
	<path fill="#F4081F" d="M18677.7,250.1c-2-2.1-11.6-13.3-21.6-24.9c-9.9-11.6-18.8-22-19.7-22.9c-1.6-1.7-2.1-0.5-9.5,24.3
		l-7.8,26.2h-31h-31l-17.8-60.8l-17.8-60.9l18.7-0.3c10.2-0.1,18.9-0.1,19.1,0.1s3.6,11.6,7.8,25.4c11.6,39.3,12.3,41.5,12.9,41
		c0.2-0.3,4.3-15.3,9.1-33.4l8.7-32.8l12.2-0.3l12.2-0.2l28.6,31.4c15.8,17.2,28.7,30.8,28.8,30.2c0.2-0.6-3.6-14.6-8.5-31.1
		l-8.7-30l24.1-0.3c13.3-0.1,24.5,0.1,24.9,0.5c0.3,0.5,8.1,27.4,17,59.9c9.1,32.5,16.6,59.9,16.9,60.9c0.5,1.6-1.5,1.7-31.8,1.7
		h-32.4L18677.7,250.1z"/>
	<path fill="#F4081F" d="M18960.4,253.2c0-0.2-2.2-9-4.9-19.4c-2.7-10.4-4.9-19.3-4.9-19.7s11.5-0.7,25.6-0.7s25.6-0.3,25.6-0.7
		c0-0.5-4.4-18.9-9.8-41.1s-9.8-40.5-9.8-40.7c0-0.1,10.7-0.3,23.9-0.3h23.9l10.7,41.7l10.8,41.6l26.3,0.3c23.9,0.2,26.3,0.4,26.8,2
		c1.2,4.1,8.5,35.9,8.3,36.1C19112.3,252.7,18960.4,253.6,18960.4,253.2z"/>
	<path fill="#F4081F" d="M19332.1,251.6c-1-2.7-34-119.1-34-120c0-0.5,9.3-0.9,22.5-0.9h22.4l3.3,12.1c1.9,6.6,4.2,14.8,5.2,18.2
		l1.9,6.2l22.6-0.3l22.7-0.3l3-3.3l3-3.2l-0.7-11.5c-0.7-11.4-0.7-11.6,1.8-14.5l2.5-2.9l26.2-0.3l26.2-0.3l-2.1,3.4
		c-2.4,4.1-2.3,9.1,0.6,19.3c2,7.4,1.5,15-1.3,18.7c-1.1,1.4-4.2,3.8-7.1,5.4c-3,1.7-5.2,3.3-5.2,3.9c0.1,0.5,3.7,2.9,8.3,5.1
		c14.6,7.6,24,19.3,26.6,33.1c2.7,14.6-4.6,26-19.9,31.1c-6,2-7.7,2.1-67.1,2.1C19345.6,252.8,19332.4,252.5,19332.1,251.6z
		 M19426.5,223.8c8.3-3.4,6.1-16.4-3.6-21.2c-4-2-5.8-2.1-31.1-2.1c-25.1,0-26.8,0.1-26.3,1.8c0.3,0.9,1.7,6.4,3.2,12.3l2.6,10.5
		h26.1C19417.3,225.2,19423.9,224.9,19426.5,223.8z"/>
	<path fill="#F4081F" d="M19717.7,249.1c-0.5-2.1-7.7-29.3-15.8-60.7c-8.2-31.3-14.9-57.1-14.9-57.4c0-0.2,27.9-0.4,61.9-0.4h61.8
		l4.3,16.5l4.3,16.4l-38.5,0.5l-38.5,0.5l11.1,43.3c6.2,23.8,11.2,43.6,11.2,44.1c0,0.4-10.4,0.7-23.1,0.7h-23L19717.7,249.1z"/>
	<path fill="#F4081F" d="M19871.7,193c-22.2-32.8-40.8-60.3-41.2-61c-0.7-1.2,2.6-1.4,19.4-1.4h20.3l7.1,10.8l7.2,10.8l29.9-0.3
		l30-0.2l2.6-10.3l2.6-10.3l24.2-0.3l24.2-0.2l-0.6,2.2c-0.3,1.3-6.6,28.7-14,60.9l-13.4,58.6l-29,0.2l-28.9,0.2L19871.7,193z
		 M19933.1,199.7c2.3-9.5,4-17.5,4-18c0-0.4-7.3-0.8-16.2-0.8c-9,0-16.2,0.2-16.2,0.6c0,0.8,23.8,36,24.1,35.6
		C19929,216.9,19930.9,209.2,19933.1,199.7z"/>
</g>
</svg>
