<?xml version="1.0" encoding="utf-8"?>
<!-- Generator: Adobe Illustrator 18.0.0, SVG Export Plug-In . SVG Version: 6.00 Build 0)  -->
<!DOCTYPE svg PUBLIC "-//W3C//DTD SVG 1.1//EN" "http://www.w3.org/Graphics/SVG/1.1/DTD/svg11.dtd">
<svg version="1.1" id="Layer_1" xmlns="http://www.w3.org/2000/svg" xmlns:xlink="http://www.w3.org/1999/xlink" x="0px" y="0px"
	 viewBox="0 0 106 40" enable-background="new 0 0 106 40" xml:space="preserve">
<title>logo</title>
<desc>Created with Sketch.</desc>
<g>
	<path fill="#D31624" d="M105.2,30.3c-0.2-0.2-0.5-0.3-0.7-0.4c-0.3-0.1-0.5-0.2-0.8-0.2c-0.5-0.1-0.8-0.2-1.1-0.3
		c-0.2-0.1-0.3-0.2-0.3-0.4s0.1-0.4,0.3-0.4c0.4-0.2,1-0.2,1.5,0c0.2,0.1,0.4,0.3,0.6,0.5l0.1,0.1L106,28l-0.1-0.1
		c-0.3-0.4-0.7-0.6-1.2-0.8c-0.8-0.3-1.7-0.4-2.5-0.1c-0.3,0.1-0.6,0.2-0.9,0.4c-0.3,0.2-0.5,0.4-0.6,0.7c-0.2,0.3-0.2,0.6-0.2,1
		c0,0.3,0.1,0.6,0.2,0.9c0.1,0.2,0.3,0.4,0.5,0.6c0.2,0.1,0.4,0.3,0.7,0.4c0.2,0.1,0.5,0.2,0.8,0.2c0.5,0.1,0.9,0.2,1.1,0.4
		c0.2,0.1,0.3,0.3,0.3,0.5c0,0.1,0,0.2-0.1,0.3c-0.1,0.1-0.1,0.2-0.2,0.2c-0.1,0.1-0.2,0.1-0.3,0.1c-0.1,0-0.2,0-0.3,0
		c-0.3,0-0.7-0.1-0.9-0.2s-0.5-0.3-0.7-0.6l-0.1-0.1l-1.3,1.2l0.1,0.1c0.3,0.4,0.8,0.7,1.3,0.8c0.5,0.2,1,0.3,1.6,0.3
		c0.4,0,0.7,0,1.1-0.1c0.4-0.1,0.7-0.2,0.9-0.4c0.3-0.2,0.5-0.4,0.7-0.7c0.2-0.3,0.2-0.7,0.2-1.1c0-0.3-0.1-0.6-0.2-0.9
		C105.6,30.7,105.4,30.5,105.2,30.3L105.2,30.3z M94.6,29.7c0.1-0.4,0.2-0.7,0.5-0.9c0.3-0.3,0.7-0.4,1.2-0.4c0.2,0,0.5,0,0.6,0.1
		c0.2,0.1,0.3,0.2,0.4,0.3c0.1,0.1,0.2,0.3,0.3,0.5c0,0.1,0.1,0.3,0.1,0.4H94.6L94.6,29.7z M98.8,27.8c-0.3-0.3-0.7-0.5-1.1-0.7
		c-0.4-0.2-0.8-0.2-1.3-0.2c-0.5,0-1,0.1-1.5,0.3c-0.4,0.2-0.8,0.4-1.2,0.8c-0.3,0.3-0.6,0.7-0.8,1.2c-0.2,0.5-0.3,1-0.3,1.5
		s0.1,1.1,0.3,1.5c0.2,0.4,0.4,0.8,0.8,1.1c0.3,0.3,0.7,0.5,1.2,0.7c0.4,0.2,0.9,0.3,1.5,0.3c1.3,0,2.3-0.5,3-1.4l0.1-0.1l-1.3-1
		l-0.1,0.1c-0.2,0.3-0.4,0.4-0.7,0.6c-0.3,0.1-0.6,0.2-1,0.2c-0.2,0-0.4,0-0.6-0.1c-0.2-0.1-0.4-0.2-0.6-0.3
		c-0.2-0.1-0.3-0.3-0.4-0.5c-0.1-0.1-0.1-0.3-0.1-0.5h5.1v-0.1l0-0.2v-0.2c0-0.6-0.1-1.2-0.3-1.6C99.3,28.5,99.1,28.1,98.8,27.8
		L98.8,27.8z M92.1,26.9h-0.2c-0.5,0-0.9,0.1-1.2,0.4c-0.2,0.2-0.4,0.4-0.6,0.6v-0.8h-1.9V34H90v-3.7c0-0.1,0-0.3,0.1-0.5
		c0.1-0.2,0.1-0.4,0.2-0.5c0.1-0.2,0.3-0.3,0.5-0.5c0.2-0.1,0.6-0.2,1.1-0.2c0.1,0,0.2,0,0.3,0.1l0.2,0V27l-0.1,0
		C92.2,26.9,92.1,26.9,92.1,26.9L92.1,26.9z M84.6,30.9c0,0.2,0,0.4-0.1,0.6c-0.1,0.2-0.1,0.4-0.3,0.5c-0.1,0.2-0.3,0.3-0.4,0.4
		s-0.4,0.1-0.6,0.1c-0.2,0-0.4,0-0.6-0.1c-0.2-0.1-0.3-0.2-0.3-0.4c-0.1-0.1-0.1-0.3-0.2-0.5s0-0.4,0-0.6V27h-1.9v4.3
		c0,0.4,0,0.7,0.1,1c0.1,0.3,0.2,0.7,0.5,0.9c0.2,0.3,0.5,0.5,0.8,0.6c0.3,0.2,0.7,0.2,1.2,0.2c0.5,0,1-0.1,1.4-0.4
		c0.2-0.2,0.4-0.4,0.6-0.6V34h1.8v-6.9h-1.9L84.6,30.9L84.6,30.9z M77.6,25.1h-1.9v1.9h-1.2v1.6h1.2v3c0,0.3,0,0.6,0.1,0.9
		c0.1,0.3,0.2,0.6,0.4,0.8c0.2,0.2,0.4,0.4,0.7,0.5c0.3,0.1,0.7,0.2,1.1,0.2c0.2,0,0.4,0,0.6,0c0.2,0,0.4-0.1,0.6-0.1l0.1,0
		l-0.1-1.6L79,32.4c-0.1,0-0.2,0.1-0.3,0.1c-0.5,0.1-0.8,0-0.9-0.2c-0.1-0.2-0.2-0.4-0.2-0.7v-3h1.7v-1.6h-1.7L77.6,25.1L77.6,25.1z
		 M73.3,27.8c-0.2-0.3-0.5-0.5-0.8-0.6c-0.3-0.1-0.7-0.2-1.2-0.2c-0.5,0-1,0.1-1.4,0.4c-0.2,0.2-0.4,0.4-0.6,0.6v-0.8h-1.9V34h1.9
		v-3.8c0-0.2,0-0.4,0.1-0.6c0.1-0.2,0.1-0.4,0.2-0.5c0.1-0.1,0.3-0.3,0.4-0.4c0.2-0.1,0.4-0.1,0.6-0.1c0.2,0,0.4,0,0.6,0.1
		c0.1,0.1,0.2,0.2,0.3,0.4c0.1,0.2,0.1,0.3,0.2,0.5l0,0.6V34h1.9v-4.3c0-0.4-0.1-0.7-0.2-1S73.5,28,73.3,27.8L73.3,27.8z M64.4,29.7
		h-3.2c0.1-0.4,0.2-0.7,0.5-0.9c0.3-0.3,0.7-0.4,1.2-0.4c0.2,0,0.5,0,0.6,0.1c0.2,0.1,0.3,0.2,0.5,0.3c0.1,0.1,0.2,0.3,0.3,0.5
		C64.3,29.4,64.3,29.6,64.4,29.7L64.4,29.7z M65.4,27.8c-0.3-0.3-0.7-0.6-1.1-0.7c-0.4-0.1-0.9-0.2-1.3-0.2c-0.5,0-1,0.1-1.5,0.3
		s-0.8,0.4-1.2,0.8c-0.3,0.3-0.6,0.7-0.8,1.2c-0.2,0.5-0.3,1-0.3,1.5s0.1,1.1,0.3,1.5c0.2,0.4,0.5,0.8,0.8,1.1
		c0.3,0.3,0.7,0.5,1.2,0.7c0.5,0.2,1,0.3,1.5,0.3c1.3,0,2.3-0.5,3-1.4l0.1-0.1l-1.3-1l-0.1,0.1c-0.2,0.2-0.4,0.4-0.7,0.6
		c-0.3,0.1-0.6,0.2-1,0.2c-0.2,0-0.4,0-0.7-0.1c-0.2-0.1-0.4-0.2-0.6-0.3c-0.2-0.2-0.3-0.3-0.4-0.5c-0.1-0.1-0.1-0.3-0.2-0.5h5.1
		v-0.1l0-0.2v-0.2c0-0.6-0.1-1.2-0.2-1.6C65.9,28.5,65.7,28.1,65.4,27.8L65.4,27.8z M57.8,23.9l-2.7,7.4l-2.7-7.4h-2.3l4,10.1H56
		L60,23.9L57.8,23.9L57.8,23.9z M54.9,11.6c-1.7-0.5-1.9-1-1.9-1.4C53,9.7,53.4,9,54.6,9s2,1,2,1l1.2-1.4c0,0-1.1-1.3-3.1-1.3
		c-1.6,0-3.9,0.7-3.9,3c0,2.2,2,2.7,2.8,2.9c0.7,0.2,2.5,0.5,2.5,1.6c0,1.1-1.3,1.3-1.8,1.3c-1.4,0-2.4-1.2-2.4-1.2l-1.3,1.2
		c0,0,1.2,1.7,3.7,1.7s3.9-1.5,3.9-3.2C58.2,12.7,56.6,12,54.9,11.6L54.9,11.6z M63.2,10.5c-0.8,0-1.5,0.3-1.9,0.7v-0.5h-1.9V21h1.9
		v-3.8c0.5,0.4,1.1,0.7,1.8,0.7c1.9,0,3.4-1.5,3.4-3.7C66.6,12,65.1,10.5,63.2,10.5L63.2,10.5z M62.9,16.2c-1,0-1.7-0.8-1.7-2
		c0-1.2,0.7-2,1.7-2c1,0,1.7,0.8,1.7,2C64.7,15.4,63.9,16.2,62.9,16.2L62.9,16.2z M84.8,13.8l3-3.2h-2.5l-2.4,2.6V6.8H81v10.8h1.9
		v-3.2l2.5,3.2H88L84.8,13.8L84.8,13.8z M79.7,10.5h-0.2c-0.5,0-0.9,0.1-1.2,0.4c-0.2,0.2-0.4,0.4-0.6,0.6v-0.8h-1.9v6.9h1.9v-3.7
		c0-0.1,0-0.3,0.1-0.5c0-0.2,0.1-0.4,0.2-0.6c0.1-0.2,0.3-0.3,0.5-0.5c0.2-0.1,0.6-0.2,1.1-0.2c0.1,0,0.2,0,0.3,0.1l0.2,0v-1.8
		l-0.1,0C79.8,10.5,79.7,10.5,79.7,10.5L79.7,10.5z M73.4,11.4c-0.2-0.3-0.6-0.5-1-0.7c-0.4-0.2-0.9-0.2-1.5-0.2
		c-0.5,0-1,0.1-1.5,0.3c-0.5,0.2-1,0.5-1.4,0.8l-0.1,0.1l1,1.2l0.1-0.1c0.2-0.2,0.5-0.4,0.8-0.5c0.3-0.1,0.6-0.2,1-0.2
		c0.4,0,0.7,0.1,1,0.3c0.3,0.2,0.4,0.4,0.4,0.8v0c-0.5,0-1,0-1.5,0.1c-0.6,0.1-1.1,0.2-1.5,0.3s-0.8,0.4-1.2,0.7
		c-0.3,0.3-0.5,0.8-0.5,1.3c0,0.4,0.1,0.8,0.3,1.1c0.2,0.3,0.4,0.5,0.7,0.7c0.2,0.2,0.5,0.3,0.8,0.4c0.3,0.1,0.6,0.1,0.9,0.1
		c0.5,0,0.9-0.1,1.3-0.3c0.3-0.1,0.5-0.3,0.7-0.5v0.6h1.8v-4.2c0-0.3,0-0.7-0.1-1C73.8,12,73.7,11.7,73.4,11.4L73.4,11.4z
		 M72.2,14.7c0,0.5-0.1,0.9-0.4,1.2c-0.3,0.3-0.7,0.4-1.2,0.4c-0.1,0-0.3,0-0.4,0c-0.1,0-0.2-0.1-0.3-0.1c-0.1,0-0.2-0.1-0.2-0.2
		c-0.1-0.1-0.1-0.2-0.1-0.3c0-0.2,0.1-0.4,0.2-0.5c0.2-0.1,0.3-0.2,0.6-0.3c0.2-0.1,0.5-0.1,0.8-0.1c0.3,0,0.6-0.1,0.8-0.1h0.2V14.7
		L72.2,14.7z"/>
	<path fill="#D31624" d="M31.9,24.2c0-0.1,0-0.1-0.1-0.2c2.1-0.1,5.7-0.1,6.4-0.1C39,24,34.4,24.1,31.9,24.2z M30.6,26.1
		c0.1,0,0.2,0.1,0.3,0.1l1.4,0.5c1.5,0.5,3,0.9,4.5,1.4c-3-0.8-5.9-1.6-8.8-2.4l0-0.1l-0.1-0.2l1.1,0.3
		C28.9,25.6,30.6,26.1,30.6,26.1z M37.8,28.3l0.2,0.1l1.3,0.4l-0.2,0c-0.1,0-0.1,0-0.2,0C38.6,28.5,38.2,28.4,37.8,28.3l0.4,0.1
		L37.8,28.3c-0.5-0.1-1.2-0.3-1.8-0.5L34,27.1C35.3,27.5,36.5,27.9,37.8,28.3L37.8,28.3z M39.3,28.7L39.3,28.7L39.3,28.7z
		 M39.6,28.7C39.6,28.6,39.6,28.6,39.6,28.7c0.1,0,0.1,0.1,0.1,0.2s0,0.2-0.1,0.2l-0.2,0c-0.9-0.2-1.8-0.5-2.7-0.7l-2.2-0.6
		c-1.9-0.5-3.8-1.1-5.8-1.6l-0.6-0.2h0c-0.1,0-0.1,0-0.1-0.1v0l0.7,0.2c0.7,0.2,1.4,0.4,2.1,0.6c1,0.3,1.9,0.5,2.9,0.7l2.9,0.8
		c0.2,0.1,0.5,0.1,0.7,0.2l1.1,0.3l0.4,0.1l0.7,0.2c0,0,0,0,0-0.1c0,0-0.1-0.1-0.1-0.1C39.4,28.8,39.5,28.7,39.6,28.7L39.6,28.7z
		 M28.6,27.5c-0.1,0-0.3-0.1-0.4-0.1l-0.3-0.6c0.1,0,0.3,0.1,0.4,0.1L28.6,27.5L28.6,27.5z M29.7,33.8l-1.3-1.6l-0.1-0.1
		c0,0,0-0.1,0-0.2c-0.2-0.5-0.4-1-0.5-1.5L29.7,33.8L29.7,33.8z M27.3,25.7C27.3,25.7,27.3,25.7,27.3,25.7l0.3,0.1
		c0,0,0.1,0,0.1,0.1C27.6,25.8,27.4,25.8,27.3,25.7L27.3,25.7z M27.4,30.9l-0.6-0.8l-1.7-2.3c0-0.1-0.1-0.2-0.1-0.3L24.8,27
		c0,0,0-0.1,0-0.1c0-0.1,0-0.1,0-0.2l0-0.2c0.2,0,0.4,0.1,0.5,0.2l1.6,2.3C27.1,29.6,27.3,30.2,27.4,30.9L27.4,30.9z M26.7,33.1
		C26.7,33.2,26.7,33.1,26.7,33.1c-0.2-0.3-0.3-0.6-0.5-0.9l-0.5-0.9l-0.9-1.8l0-0.9C25.5,30.1,26.1,31.6,26.7,33.1L26.7,33.1z
		 M24.7,25.8l0.4,0.5l-0.3-0.1L24.7,25.8L24.7,25.8z M24.4,17c0,0,0.1-0.1,0.1-0.2c0.4-0.4,0.7-0.8,1-1.1l0.5-0.5l0.8-0.8
		c0.3-0.4,0.7-0.7,1-1.1l0.1-0.2c0.4-0.4,0.8-0.8,1.2-1.2c0.2-0.2,0.4-0.4,0.6-0.6c0.6-0.6,1.3-1.2,1.9-1.8l0.3-0.3
		c0.3-0.3,0.7-0.6,1-0.9l0.7-0.6l0.7-0.5C33.3,8.5,32,9.7,30.8,11c-0.3,0.3-0.6,0.6-0.9,0.9c-0.1,0-0.1,0.1-0.2,0.1l-0.1,0.1
		l-4.5,4.5l-0.5,0.5l-0.1,0.1c0,0,0,0,0,0C24.5,17.1,24.5,17.1,24.4,17L24.4,17z M24.4,15.1v-0.1c0,0,0.1-0.1,0.1-0.1l0.3-0.3
		l1.2-1.1c0.1-0.1,0.3-0.2,0.4-0.4l0.2-0.2l1-0.9c-0.5,0.6-1.1,1.1-1.6,1.7l-1.2,1.3l-0.4,0.4C24.4,15.4,24.4,15.2,24.4,15.1
		L24.4,15.1z M25.9,16.7c-0.3,0.4-0.7,0.7-1,1l0,0c0,0,0,0,0,0v0l0,0l2.2-2.1C26.6,16,26.3,16.4,25.9,16.7L25.9,16.7z M25.4,21
		l-0.2-0.1c0,0,0.1-0.1,0.1-0.1c0,0,0,0,0,0C25.4,20.9,25.4,20.9,25.4,21L25.4,21z M25.9,17.8c0.1-0.1,0.3-0.2,0.4-0.3
		c0.5-0.4,1-0.8,1.4-1.2l0.4-0.3c0.4-0.3,0.7-0.6,1-0.9c0.9-0.8,1.9-1.7,2.8-2.5l1.4-1.3c0.7-0.6,1.4-1.2,2.2-1.8
		c0.2-0.2,0.5-0.4,0.8-0.6c-0.4,0.7-1,1.2-1.6,1.7l-0.3,0.3L33,12.1c0,0,0,0,0,0l-0.7,0.6c-0.5,0.4-1,0.8-1.4,1.2l-1.4,1.2
		c-0.2,0.2-0.5,0.4-0.7,0.6L27.2,17c-0.7,0.6-1.4,1.2-2.1,1.8c0,0-0.1,0-0.2-0.1c0,0,0,0,0,0c0,0,0,0,0.1-0.1L25.9,17.8L25.9,17.8z
		 M35.5,11.9l0.1-0.1l-0.1-0.1c0.3-0.2,0.5-0.4,0.8-0.5c0.3-0.1,0.6-0.2,1-0.4c0.5-0.2,1-0.3,1.5-0.5l0.4-0.1h0.2c0,0,0,0,0,0
		c-0.1,0.1-0.3,0.2-0.4,0.2c-0.3,0.2-0.6,0.3-0.9,0.4l-0.5,0.2c-0.2,0.1-0.3,0.1-0.5,0.2c-0.5,0.2-1.3,0.6-1.4,0.6
		c-0.3,0.2-0.7,0.4-1,0.5c0.1-0.1,0.3-0.2,0.4-0.4L35.5,11.9L35.5,11.9z M39.1,9.6c0,0,0.1,0,0.2,0c0.1,0,0.3,0,0.4,0l0.1,0h0.1
		L40,9.7c0.1,0.1,0.2,0.2,0.2,0.3c0,0.1,0.1,0.1,0.1,0.2c0,0.1,0,0.2,0,0.2c-0.1,0.4-0.4,0.6-0.8,0.8l-0.1,0l-0.1,0l-0.1,0.1
		c0,0-0.1-0.1-0.1,0l0.2-0.1c0.3-0.1,0.5-0.3,0.8-0.5c0.1-0.1,0.2-0.2,0.2-0.4c0-0.2-0.1-0.3-0.2-0.4l-0.1-0.1
		c-0.1,0-0.1-0.1-0.2-0.1C39.5,9.6,39.2,9.6,39.1,9.6c-0.4,0.2-0.7,0.3-1.1,0.4c-0.5,0.1-0.9,0.3-1.3,0.4
		C37.4,10.1,38.3,9.8,39.1,9.6L39.1,9.6z M37.6,11.9c-0.7,0.4-1.5,0.8-2.2,1.1l-0.3,0.2l-1.8,1l0.1-0.1c0.6-0.4,1.3-0.8,2-1.2
		c0.2-0.1,0.4-0.2,0.5-0.3c0.2-0.1,0.4-0.2,0.6-0.3L37.6,11.9C37.7,12,37.7,12,37.6,11.9L37.6,11.9z M36.9,13
		c-0.1,0.1-0.2,0.1-0.3,0.2l-1.9,1.5c-1.5,1.1-2.8,2.3-4.2,3.5c-0.7,0.6-1.4,1.2-2,1.7c0,0,0,0-0.1,0l-1.5-0.5c0,0,0,0,0,0l0.3-0.2
		l0.8-0.7l0.5-0.5l0.3-0.3l1.4-1.1c0.1-0.1,0.2-0.1,0.3-0.2C32.6,15.2,34.7,14.1,36.9,13L36.9,13z M33.5,22.6l0.1,0
		c0.1,0,0.2,0.1,0.3,0.1c0,0,0.1,0,0.1,0l-2.2-0.8l-3.8-1.3c0,0,0,0,0-0.1C29.5,21.2,32,22.1,33.5,22.6L33.5,22.6z M29.6,21.1
		c1.1,0.4,3.1,1.1,4.2,1.4l0.1,0c0,0,0.1,0,0.1,0c0,0-0.1,0-0.2,0c0,0-0.1,0-0.1,0C32.7,22.2,30.7,21.5,29.6,21.1L29.6,21.1z
		 M27.7,20.6L26.1,20c0,0,0,0,0,0c0,0,0,0,0.1,0L27.7,20.6C27.7,20.5,27.7,20.6,27.7,20.6L27.7,20.6z M25.8,22.2l-0.1,0.1
		c0,0,0,0-0.1,0l-0.1-0.2C25.5,22.1,25.8,22.3,25.8,22.2z M26.2,22.6c-0.1,0-0.2-0.1-0.3-0.1c0-0.1,0.1-0.1,0.2-0.2h0L26.2,22.6
		L26.2,22.6z M26.9,21.2c-0.1,0.1-0.2,0.2-0.3,0.3l-0.8-0.4c-0.1-0.2-0.2-0.4-0.3-0.6c0-0.1,0.1-0.1,0.1-0.2c0.5,0.2,1,0.4,1.5,0.6
		C27.1,21.1,27,21.1,26.9,21.2L26.9,21.2z M27.7,23.1C27.7,23.1,27.7,23.1,27.7,23.1c-0.4-0.1-0.7-0.2-1.1-0.3l-0.1-0.2
		c0,0,0.1,0,0.1,0.1L27.7,23.1L27.7,23.1z M27.6,25.5c-0.2,0-0.3-0.1-0.5-0.1L27,25l0.5,0.1L27.6,25.5L27.6,25.5z M27,23.7l1.1,0.3
		l0,0L27,23.7L27,23.7z M30,35.6l0.3,0.3c0.2,0.3,0.4,0.6,0.6,0.9c0.1,0.2,0.2,0.3,0.3,0.5c0,0,0,0-0.1,0c-0.2-0.2-0.5-0.5-0.7-0.8
		S30.1,35.8,30,35.6L30,35.6L30,35.6z M23.7,29.2c-0.1-0.1-0.2-0.5-0.3-0.9l-0.1-0.5c0.3,0.5,0.5,1,0.8,1.5c0,0.1,0.1,0.1,0.1,0.2
		c0,0.1,0,0.2,0,0.2v0.3L23.7,29.2L23.7,29.2z M23.1,26.3L23.1,26.3c0,0.1,0.1,0.1,0.1,0.1c0,0,0,0,0,0.1c0,0.1,0.1,0.2,0.1,0.2
		C23.2,26.6,23.2,26.4,23.1,26.3L23.1,26.3z M23,15.2c0,0,0-0.1,0-0.1v-0.2l0-0.4c0,0.1,0.1,0.2,0.2,0.4c0,0.1,0,0.1,0,0.1v0.2
		l0,0.1c0,0.1-0.1,0.1-0.1,0.1C23.1,15.3,23,15.3,23,15.2z M22.9,14.2l0.2,0.5v0.1l-0.2-0.5L22.9,14.2L22.9,14.2z M23.4,25.3
		c0,0.1,0.1,0.2,0.1,0.2l-0.2-0.3L23.4,25.3z M24.1,27.7v0.5c-0.2-0.5-0.5-1-0.8-1.5c0,0,0.1,0.1,0.1,0.1L24.1,27.7L24.1,27.7z
		 M21.7,13.5l0-0.1l0-0.1c0-0.1,0-0.1,0-0.1l0.6,1.4l0,0.5L21.7,13.5L21.7,13.5z M21.9,24.9c-0.1,0.1-0.2,0.2-0.3,0.3L21.4,25
		c0.1-0.1,0.2-0.2,0.3-0.3L21.9,24.9C22,24.8,21.9,24.9,21.9,24.9L21.9,24.9z M18.4,27.5L18.4,27.5l0.3-0.2l0.8-0.6l-0.2,0.1
		l1.9-1.6l0.3,0.1L18.4,27.5L18.4,27.5z M18.4,19.6l-0.1,0l-0.6-0.2l0.7-0.3c0.1,0.1,0.1,0.3,0.2,0.4C18.5,19.5,18.5,19.5,18.4,19.6
		C18.4,19.5,18.4,19.6,18.4,19.6z M18.4,21.2L17.6,21c0,0,0,0,0,0C17.9,21,18.1,21.1,18.4,21.2L18.4,21.2L18.4,21.2z M18,28.4
		l-2.9,2.2c0.1-0.1,0.1-0.2,0.2-0.3l0.9-0.8l0.4-0.3l1.5-1C18.1,28.3,18.1,28.4,18,28.4L18,28.4z M16.2,29.6c0,0-0.1,0.1-0.2,0.1
		l-0.5,0.4l0.1-0.1l0-0.1l0.1-0.1C15.9,29.8,16,29.7,16.2,29.6L16.2,29.6z M17.8,23.6L17.8,23.6c0,0.1-0.1,0.1-0.1,0.2l0,0
		c0,0,0,0,0,0L17.8,23.6L17.8,23.6z M18.1,23.6C18.1,23.7,18,23.7,18.1,23.6c-0.1,0.1-0.1,0.1-0.2,0.2c0,0-0.1,0-0.2,0c0,0,0,0,0,0
		l0.2-0.2C18,23.6,18,23.6,18.1,23.6L18.1,23.6z M18,22.4c0,0.1-0.1,0.2-0.2,0.2l-0.1,0C17.8,22.5,17.9,22.4,18,22.4
		C18,22.3,18,22.3,18,22.4L18,22.4z M14,27.5L14,27.5C13.9,27.6,13.9,27.5,14,27.5l0.3-0.4l0.2-0.2c0.3-0.3,0.6-0.6,0.9-0.9
		c0.4-0.4,0.8-0.8,1.1-1.1l0.2-0.2l0.2-0.2l0.3-0.3c0,0,0.1-0.1,0.1-0.1h0.1c-0.2,0.2-0.4,0.5-0.6,0.7c0.2-0.2,0.5-0.5,0.7-0.7
		l0.2,0L17,24.8c0,0,0,0,0,0.1c0,0,0,0,0,0.1c0,0-0.1,0-0.1,0.1L14,27.5L14,27.5z M13.2,33.4l0.2-0.3c0,0,0.1-0.1,0.1-0.1
		c0,0,0.1,0,0.1-0.1l0.6-0.5L13.2,33.4L13.2,33.4z M12.3,33.2L12.3,33.2c0.2-0.2,0.4-0.4,0.6-0.5l0.5-0.4c0,0-0.1,0.1-0.1,0.1
		C13.3,32.3,12.3,33.2,12.3,33.2z M12.3,33.2l-1.1,0.9c-0.5,0.4-0.9,0.8-1.4,1.2l0.2-0.2l0.5-0.4c0.2-0.2,0.5-0.4,0.7-0.6l0.7-0.6
		c0.2-0.2,0.5-0.4,0.8-0.6C12.5,33,12.4,33.1,12.3,33.2L12.3,33.2z M9.5,35.3C9.4,35.4,9.5,35.3,9.5,35.3z M9.2,35.5l-1.3,1.1
		c0,0,0,0,0,0v-0.1l0,0l0.1,0l0.1-0.1c0.4-0.3,0.9-0.7,1.3-1L9.2,35.5L9.2,35.5z M8.6,35.9l1.3-1.1l4.3-3.7
		c-0.1,0.2-0.2,0.4-0.4,0.5l-0.1,0.1l-0.1,0.1c-0.5,0.4-1,0.9-1.5,1.3c0.1,0,0.1-0.1,0.2-0.2c-0.3,0.3-0.6,0.5-1,0.8
		c-1,0.8-2,1.6-3,2.4C8.5,36,8.5,35.9,8.6,35.9L8.6,35.9z M16.6,23.5l0.2-0.1c0.1,0,0.2,0,0.2,0.1l-0.1,0.2L16.6,23.5L16.6,23.5z
		 M16.3,22.1C16.3,22.1,16.4,22.1,16.3,22.1l0.2-0.2l0.7,0.2L17,22.3C16.8,22.3,16.6,22.2,16.3,22.1L16.3,22.1z M15.5,20.4
		c-1.6-0.5-3.1-1-4.6-1.5c2.1,0.6,4.1,1.2,6.2,1.9c0,0,0,0-0.1,0c-0.1,0-0.2,0-0.3-0.1C16.3,20.6,15.9,20.5,15.5,20.4z M15.9,23.2
		L15.4,23c0,0,0-0.1,0.1-0.1l0.6,0.2C16,23.1,16,23.2,15.9,23.2L15.9,23.2z M15.7,23.4c-1.4,1.1-2.7,2.2-4.1,3.3
		c0.4-0.4,0.9-0.9,1.4-1.3l0.2-0.2l0.2-0.2l0.9-0.9c0.2-0.2,0.4-0.4,0.7-0.6c0.1-0.1,0.1-0.1,0.2-0.2C15.3,23.3,15.5,23.3,15.7,23.4
		L15.7,23.4z M13.7,22.4l1.2,0.3c0,0,0,0-0.1,0.1C14.4,22.7,14,22.6,13.7,22.4z M12.5,20.8l3.5,1c0,0,0,0,0,0l-0.2,0.1
		C14.7,21.6,13.6,21.2,12.5,20.8L12.5,20.8z M12,20.6c0.1,0,0.1,0,0.2,0.1l0.7,0.2h0l-0.4-0.1C12.3,20.7,12.1,20.7,12,20.6L12,20.6z
		 M10.7,17.2l0.6,0.3c-0.4-0.1-0.8-0.3-1.1-0.5c-1.1-0.5-2.3-1-3.4-1.4c0.1,0,0.1,0,0.2,0l0.8,0.2C7.9,15.8,8,15.9,8.2,16
		c0.1,0,0.2,0,0.4,0c0.1,0,0.2,0,0.3,0l0.9,0.6l0.1,0l1.9,0.8l2.1,1C12.8,18,11.7,17.6,10.7,17.2L10.7,17.2L10.7,17.2z M7.2,13.2
		c0.6,0.2,1.1,0.4,1.7,0.6c-0.1,0-0.2,0-0.2-0.1L8,13.5h0l-0.2-0.1c-0.1,0-0.2,0-0.3,0s-0.1-0.1-0.2-0.1L7.2,13.2l-0.3,0
		c-0.1,0-0.2-0.1-0.2-0.1C6.9,13,7.1,13.1,7.2,13.2L7.2,13.2z M9.6,14.9c0.2,0.1,0.4,0.2,0.6,0.3c0.6,0.3,1.2,0.6,1.8,0.8
		c-1-0.2-2.1-0.4-3.1-0.6l-0.2-0.1c0,0-0.1,0-0.1-0.1l2.2,0.2c0,0-1.1-0.5-2.5-1.1l0.3,0.1c0.1,0,0.2,0.1,0.3,0.1L9.6,14.9L9.6,14.9
		z M11.8,15.2c0,0,0.1,0,0.1,0.1l0.1,0.1l0.1,0.1l0.2,0.2l-0.7-0.3C11.7,15.2,11.8,15.2,11.8,15.2L11.8,15.2z M17.5,19.9l-0.3-0.1
		L17,19.7c0,0,0,0,0,0C17.2,19.7,17.4,19.8,17.5,19.9L17.5,19.9z M14.8,17.3c0.1,0,0.3,0.1,0.4,0.2l2.6,1.2l-0.7,0.5L16.8,19
		l-0.9-0.4l-0.6-0.3c-0.6-0.3-1.2-0.6-1.8-0.9c-0.1,0-0.3,0-0.4-0.1c-0.4-0.1-0.7-0.3-1-0.5l-0.1,0c-0.3-0.2-0.6-0.3-0.9-0.5
		c-0.1-0.1-0.2-0.1-0.3-0.2c1.2,0.2,2.4,0.5,3.6,0.8C14.5,17.1,14.6,17.2,14.8,17.3L14.8,17.3z M14.1,7.9l0.8,1.5L15,9.7
		c0.9,2.1,1.8,4.2,2.7,6.2c0.1,0.2,0.1,0.3,0.2,0.5c0,0,0,0,0,0l-0.1,0C16.6,13.6,15.3,10.8,14.1,7.9L14.1,7.9z M13.7,7.2
		C13.7,7.2,13.7,7.2,13.7,7.2c0.2,0.2,0.3,0.4,0.4,0.7l0.3,0.7C14.1,8.1,13.9,7.6,13.7,7.2L13.7,7.2z M14.5,1.1L14.5,1.1l1.3,3
		l0.1,0.2l0,0c0,0,0,0,0,0c0,0,0,0,0,0c0-0.1-0.1-0.1-0.1-0.2C15.3,3.1,14.9,2.1,14.5,1.1L14.5,1.1z M14.6,1l0.5,1.2
		c0,0.1,0,0.1,0.1,0.2C15.1,2,14.9,1.5,14.6,1L14.6,1c0.6,1,1,2,1.5,3.1l-0.2,0.1c-0.2-0.4-0.3-0.8-0.5-1.2
		c-0.1-0.1-0.1-0.3-0.2-0.4c-0.1-0.3-0.2-0.5-0.4-0.8C14.8,1.6,14.7,1.4,14.6,1L14.6,1z M17.4,12.5l0.4,0.9c0.1,0.3,0.2,0.6,0.4,0.9
		c-0.5-0.8-0.9-1.6-1.4-2.4l-0.2-0.4L16.4,11c-0.5-1.2-1-2.3-1.4-3.5c0,0,0,0,0,0l0.8,1.6l0.8,1.7C16.9,11.4,17.1,11.9,17.4,12.5z
		 M18,12c0.3,0.5,0.5,1.1,0.7,1.7c-0.1-0.3-0.3-0.5-0.4-0.8C18.2,12.6,18.1,12.3,18,12l-0.8-1.6C17.5,10.9,17.8,11.5,18,12L18,12z
		 M17.5,7.5L17.5,7.5L17.5,7.5z M17.5,7.5C17.5,7.5,17.5,7.5,17.5,7.5z M17.5,7.6L17.5,7.6L17.5,7.6z M17.6,7.6
		C17.6,7.6,17.5,7.6,17.6,7.6z M17.6,7.7L17.6,7.7L17.6,7.7z M17.6,7.7L17.6,7.7L17.6,7.7z M17.6,7.8L17.6,7.8L17.6,7.8L17.6,7.8z
		 M18.5,22.8C18.5,22.8,18.5,22.8,18.5,22.8C18.4,22.8,18.5,22.8,18.5,22.8l0.2-0.2L18.5,22.8L18.5,22.8z M18.7,22.8l0.2-0.2
		l0.2,0.1l0,0l-0.3,0.3L18.7,22.8C18.6,22.9,18.6,22.8,18.7,22.8L18.7,22.8z M17.6,7.8l0.1,0.2c0.6,1.5,1.3,3,1.9,4.5
		c0.1,0.2,0.2,0.4,0.3,0.6c0,0,0,0.1,0,0.1v0.2L17.6,7.8C17.7,7.8,17.7,7.8,17.6,7.8C17.6,7.8,17.6,7.8,17.6,7.8L17.6,7.8z
		 M19.3,3.1c0,0,0,0.1,0,0.2c0-0.1,0-0.2,0-0.4c-0.1-0.5-0.1-1-0.2-1.6c0-0.2,0-0.4,0.1-0.5c0.1-0.1,0.2-0.2,0.4-0.2
		c0.3,0,0.5,0.4,0.6,0.6l0.2,0.4l0.1,0.4c0.2,0.6,0.3,1.2,0.4,1.8c0.1,0.6,0.2,1.3,0.4,1.9l0.3,1.7c0,0.1,0,0.2,0,0.2
		c0,0.1,0,0.1,0,0.2l-0.3,2.4l-1.1-2.4l-0.1-0.2l0-0.3l-0.2-1.8l-0.3-2.1c0,0.2,0,0.3,0,0.5L20,7.5c-0.1-0.2-0.2-0.3-0.2-0.5l0-0.1
		c0,0,0-0.1,0-0.1l-0.2-1.8L19.3,3.1L19.3,3.1z M16.9,2.1c-0.1-0.3-0.2-0.5-0.4-0.8l-0.3-0.7c0,0,0,0,0-0.1c0,0,0,0,0,0
		c0,0,0,0.1,0,0.1l1.1,2.3l1.5,3.2l0.3,0.7c0,0,0,0.1,0,0.1v0.1l0,0.3C18.4,5.5,17.7,3.8,16.9,2.1L16.9,2.1z M15.8,0.7L15.8,0.7
		c0-0.1-0.1-0.1,0-0.1c0,0,0,0,0,0l0.1,0.3L16.8,3C16.5,2.3,16.2,1.5,15.8,0.7z M21.3,11.5L21.3,11.5c0-0.1,0-0.2,0-0.2
		c0-0.1,0-0.1,0-0.2l0.1,0.2c0,0.1,0,0.2,0,0.3L21.3,11.5L21.3,11.5z M21.2,11.9c0,0.1,0.1,0.2,0.1,0.2c0,0.1,0,0.1,0,0.2
		c0-0.1-0.1-0.2-0.1-0.2L21.2,11.9L21.2,11.9z M20.1,7.8c0.2,0.4,0.4,0.9,0.6,1.3l0,0l-0.1-0.2l-0.3-0.6l-0.1-0.1c0-0.1,0-0.1,0-0.2
		L20.1,7.8L20.1,7.8z M19.8,7.4c0-0.1,0-0.3,0-0.4c0.1,0.2,0.2,0.4,0.3,0.6c0,0.1,0,0.2,0,0.3C20,7.9,19.8,7.4,19.8,7.4z M20.1,8.7
		c0,0.1,0,0.3,0,0.4C20,8.9,20,8.8,19.9,8.6c0-0.1,0-0.3-0.1-0.4C19.9,8.3,20,8.5,20.1,8.7L20.1,8.7z M20,9.4
		c0.1,0.2,0.1,0.3,0.2,0.5v0.2C20.2,9.9,20.1,9.7,20,9.4L20,9.4L20,9.4z M21.1,11.8c0,0.1,0,0.1,0,0.2c-0.2-0.4-0.4-0.9-0.6-1.3
		l0-0.1c0-0.1,0-0.1,0-0.2C20.6,10.8,20.9,11.3,21.1,11.8L21.1,11.8z M20.3,9.5c0-0.2,0-0.3-0.1-0.5l1,1.9c0,0.1,0,0.2,0,0.3
		C20.8,10.6,20.6,10.1,20.3,9.5L20.3,9.5z M21.6,8.3l-0.1,0.7c0,0.3-0.1,0.7-0.1,1L21.6,8.3c0.1,0,0,0.2,0,0.3l-0.2,2
		c0-0.1-0.1-0.1-0.1-0.2c0,0,0-0.1,0-0.1c0,0,0-0.1,0-0.1L21.6,8C21.7,8.1,21.6,8.2,21.6,8.3z M21.8,12.6c0-0.1,0-0.2,0-0.3
		c0.1,0.3,0.3,0.5,0.4,0.8l0.1,0.1v0.1c0,0.1,0,0.3,0,0.4l-0.5-1.1C21.8,12.7,21.8,12.6,21.8,12.6L21.8,12.6z M21.9,11.5l0-0.3
		l0-0.5c0.1,0.4,0.1,0.8,0.2,1.2l0,0.4L22,11.8c0,0,0-0.1,0-0.1S21.9,11.6,21.9,11.5L21.9,11.5z M10.2,21.2C9.9,21.1,9.7,21,9.4,21
		c0.1,0,0.1,0,0.2,0.1l0.4,0.1C10.1,21.2,10.2,21.2,10.2,21.2C10.2,21.2,10.2,21.2,10.2,21.2L10.2,21.2z M40.1,23.8
		c-1.8-0.3-6.4-0.3-9.2-0.2l-0.5-0.2c-1.2-0.6-2.4-1.1-3.6-1.7c0.2-0.2,0.4-0.4,0.6-0.5c1.8,0.7,4.5,1.6,6.3,2.2
		c0.1,0,0.4-0.2,0.5-0.5c0.1-0.4,0.1-0.7-0.1-0.8l-5.6-2c0.8-0.7,1.7-1.4,2.5-2.1l2.5-2.1l1.3-1c0.8-0.7,1.7-1.4,2.6-2l0.7-0.5
		c0.2-0.1,0.3-0.2,0.5-0.2l0.3-0.1h0h0l0-0.1c0-0.1,0-0.2,0-0.2c-0.1,0-0.1,0-0.2,0v0L38.2,12c0,0-0.1,0-0.1,0.1c0,0,0,0,0,0l-1,0.5
		c-0.3,0.2-0.6,0.3-0.9,0.5c-0.3,0.2-0.6,0.3-0.9,0.5c-1.2,0.6-2.4,1.3-3.6,1.9l0.4-0.3l0.5-0.2c0.9-0.5,1.8-1,2.7-1.5l1.9-1
		c0.5-0.3,1.1-0.6,1.7-0.8c0.1,0,0.2-0.1,0.3-0.1l0,0c0,0,0.1,0,0.1,0.1c0,0,0.1,0.2,0,0.3c0,0,0,0-0.1,0c0,0,0,0,0,0l-0.1,0
		c-0.2,0.1-0.3,0.2-0.5,0.3l-0.9,0.6c-0.1,0.1-0.2,0.1-0.3,0.2c-0.6,0.4-1.1,0.8-1.7,1.2l-1.1,0.9l-0.2,0.2l-2.3,2
		c-0.5,0.4-1,0.9-1.5,1.3c0,0,0,0,0,0c1.2-1,2.5-2.1,3.8-3.1c-1,0.9-2,1.7-3,2.6c0.1-0.1,0.3-0.2,0.4-0.3c-0.4,0.4-0.8,0.8-1.2,1.1
		L29.6,20l-0.2,0.3c0,0,0,0,0,0c0.1-0.1,0.2-0.2,0.3-0.3l1.6-1.4l1.3-1.1c0.2-0.2,0.4-0.4,0.7-0.5l0,0l0.1,0l1.3-1
		c0.7-0.6,1.4-1.1,2-1.6c0.3-0.3,0.7-0.5,1-0.8c0.1-0.1,0.2-0.2,0.4-0.3c0.4-0.2,0.7-0.5,1.1-0.7c0.1-0.1,0.3-0.1,0.3-0.2
		c0.1-0.1,0.1-0.3,0.1-0.5c0-0.2-0.1-0.3-0.2-0.4c0.1,0.1,0.1,0.1,0.2,0.2c0,0.1,0.1,0.2,0,0.3c0,0.1,0,0.1,0,0.1
		c0,0.1-0.1,0.2-0.2,0.2l-0.1,0.1L39,12.5c-0.3,0.1-0.5,0.3-0.8,0.4l-0.5,0.3c0.3-0.3,0.7-0.6,1.2-0.8l0.3-0.2
		c0.1-0.1,0.2-0.1,0.2-0.3c0-0.1,0-0.3,0-0.4c-0.1-0.1-0.1-0.2-0.2-0.2l0.5-0.3c0.1-0.1,0.2-0.1,0.3-0.2l0.1-0.1
		c0-0.1,0.1-0.1,0.1-0.2c0-0.1,0.1-0.2,0.1-0.3c0-0.1,0-0.2,0-0.3c0-0.1-0.1-0.2-0.1-0.2c-0.1-0.1-0.2-0.2-0.4-0.3
		c-0.1,0-0.2,0-0.3,0c-0.9,0.1-1.7,0.4-2.4,0.6c0.2,0,0.3-0.1,0.5-0.2L36,10.6c-0.3,0.1-0.5,0.3-0.8,0.5l0.7-0.6l0.6-0.7
		c0.1-0.1,0.2-0.2,0.3-0.4c0.1-0.1,0.2-0.3,0.2-0.4c0-0.1,0-0.2,0-0.3c0-0.1-0.1-0.1-0.1-0.2c0,0-0.1-0.1-0.2-0.1
		c-0.1,0-0.1-0.1-0.2-0.1c0,0-0.1,0-0.1,0c-0.2,0-0.4,0.1-0.5,0.2l-0.2,0.1c-0.5,0.4-1,0.8-1.4,1.2L32,11.6l-2,1.7l-0.1,0.1
		l-2.8,2.4c-0.7,0.6-1.4,1.2-2.1,1.8l1.5-1.5l0.4-0.4l0.4-0.4l0.4-0.4l0.4-0.4l3-2.9c1.2-1.2,2.5-2.4,3.7-3.7l0.5-0.6l0.2-0.2
		c0.1-0.2,0.2-0.3,0.2-0.5V6.6c0-0.1-0.1-0.2-0.2-0.3l-0.1-0.1c-0.1-0.1-0.2-0.1-0.3-0.1c-0.1,0-0.2,0-0.3,0
		c-0.2,0.1-0.3,0.1-0.5,0.2c0,0-0.2,0.1-0.3,0.2c0.1-0.1,0.2-0.2,0.2-0.2c0,0,0,0,0,0c0.2-0.2,0.2-0.4,0.1-0.6
		c-0.2-0.2-0.5-0.2-0.7,0l-0.1,0.1c-0.3,0.3-0.6,0.7-1,1c-0.1,0.1-0.2,0.2-0.3,0.3L31.4,8l-0.6,0.5L30.2,9l-0.9,0.8L29,10.1
		c0.2-0.2,0.5-0.4,0.7-0.6c-0.4,0.4-0.9,0.8-1.3,1.1L27,11.8c-0.9,0.8-1.8,1.5-2.6,2.3c0,0,0,0,0,0l0-1.8c0-0.1-0.2-0.1-0.4-0.1
		h-0.1l0.1-2.6c0-0.2-0.2-0.4-0.5-0.4h-0.1c0,0,0,0-0.1,0c0,0,0,0-0.1,0c0,0,0,0-0.1,0l-0.1,0c0,0,0,0,0,0c0,0,0,0,0,0l0,0.1v0.8
		c0,0,0,0,0,0.1v0.3c0,0,0,0,0,0.1v0.3l0,0.1v0.4l0,0.1v0.3l0,0.1v0.4l0,0.1v0.4l0,0.1v0.3l0,0.1v0.4c0,0,0,0,0,0.1V14
		c0,0,0,0,0,0.1v0l-0.2-0.3l-0.1-0.1l0-0.7l0-0.7l-0.1-1.4c-0.1-1.3-0.2-2.6-0.2-4l0-0.2c0-0.1,0-0.1,0-0.2L23,2.4
		c0-0.5-0.3-1-0.6-1c-0.4,0-0.7,0.4-0.7,0.9c0,0.1,0.1,2,0.2,2.9c0,0.1,0,0.2,0,0.2c0,0.2,0,0.3,0,0.4c-0.1-0.7-0.2-1.4-0.4-2.2
		L21,1.7c-0.1-0.4-0.2-0.7-0.4-1c-0.2-0.3-0.5-0.6-0.8-0.7c-0.3-0.1-0.6,0-0.8,0.2c-0.2,0.2-0.4,0.5-0.5,0.8c-0.1,0.4,0,0.7,0,1.1
		c0.1,0.8,0.2,1.7,0.3,2.6c0.1,0.5,0.1,1,0.2,1.4l-0.4-0.7C18,3.7,17.2,2,16.4,0.3c0.3,0.7,0.7,1.5,1,2.3c-0.4-0.7-0.7-1.5-1.1-2.2
		l-0.7,0.3h0c1,2.2,1.9,4.4,2.9,6.6l0.9,2.1c0,0.1,0,0.1,0,0.1l-2.2-4.8c0.5,1.2,1.1,2.4,1.6,3.6c0,0,0,0.1,0,0.1l-2.1-4.4
		c0,0,0,0,0,0c0,0-0.1,0-0.1,0.1c-0.5-1.1-1.3-3.1-1.4-3.2c-0.2-0.5-0.7-0.7-1-0.6c-0.4,0.1-0.5,0.6-0.4,1c0,0.3,0.2,0.5,0.3,0.8
		l0.3,0.8l0.1,0.2c0,0.1,0,0.2,0.1,0.2c-0.2-0.3-0.5-0.4-0.7-0.3c-0.2,0.1-0.3,0.5-0.2,1c-0.2-0.2-0.4-0.4-0.6-0.3
		c-0.3,0.1-0.3,0.6-0.1,1c0,0,0,0,0,0L13,4.7l0.6,1.5l-0.4-0.8l-0.1-0.1c-0.1-0.1-0.2-0.1-0.4-0.1c-0.1,0.1-0.2,0.2-0.2,0.3
		c0,0.1,0,0.1,0,0.2l0.1,0.2c0.3,0.7,0.6,1.4,0.9,2.1l1.8,4.2c0.4,0.9,0.8,1.7,1.2,2.6c0,0,0.1,0.1,0.1,0.2L15.2,12
		c0.6,1.3,1.1,2.6,1.7,3.8c0,0,0,0.1,0,0.1l-0.2-0.1l-0.2-0.1l-1.8-0.9c-0.4-0.2-5.6-2.4-5.8-2.5c0,0-0.1,0-0.1,0
		c-0.6-0.3-0.8,0.4-0.7,0.5l-0.6-0.2l-0.7-0.2c-0.1,0-0.2,0.1-0.3,0.3c-0.1,0.1-0.1,0.2,0,0.3c-0.2-0.1-0.5-0.1-0.8-0.2l-0.4-0.1
		c-0.1,0-0.3-0.1-0.4-0.1c-0.2,0-0.3-0.1-0.5-0.1c-0.2,0-0.4,0.1-0.5,0.2c-0.1,0.1-0.1,0.4-0.1,0.5c0.1,0.2,0.2,0.3,0.2,0.5l0.1,0.1
		c0,0,0.1,0.1,0.1,0.1c0,0.1,0.1,0.1,0.1,0.1c0,0.1,0.1,0.1,0.2,0.1l0.2,0.1l0.2,0.1l0.3,0.1l0.3,0.1c0.1,0.1,0.2,0.1,0.3,0.1l0.1,0
		c-0.1,0-0.2,0-0.3-0.1l-0.2,0.7c0,0,4.9,2.1,7.4,3.1c-1.4-0.5-2.9-0.9-4.4-1.4l-1.5-0.5c-1-0.3-2-0.6-3.1-0.7C3.4,16,3.1,16,2.8,16
		c-0.1,0-0.3,0-0.4-0.1L2,15.9c-0.1,0-0.1,0-0.2,0c-0.1,0-0.1,0-0.2-0.1l-0.9-0.3l-0.2-0.1H0.4C0.2,15.4,0,15.6,0,15.8
		c0,0.3,0.1,0.5,0.3,0.6h0.1l1.3,0.2c0.1,0,0.2,0,0.3,0.1c0.3,0.1,0.6,0.2,0.9,0.3c-0.1,0.1-0.1,0.3-0.1,0.4l-0.1,0.3v0.1l1,0.3
		c2.3,0.7,4.7,1.4,7,2.1l-0.2,0.6L8.2,20l-1.1-0.4c-0.7-0.2-1.5-0.5-2.2-0.8c0,0-0.1,0,0,0c0,0,0.1,0,0.1,0l1.9,0.7l0.9,0.4
		c0,0,0.1,0,0.1,0.1l-0.9-0.2l-1.7-0.5l-0.8-0.3l-1-0.3l-0.8-0.3l-1.5-0.5c0,0-0.1,0-0.1,0c-0.2,0-0.3,0.1-0.4,0.3
		c-0.1,0.2,0,0.4,0.1,0.5h0.1l0.1,0c1.2,0.3,2.4,0.7,3.6,1L5,19.7c0.6,0.2,1.2,0.4,1.8,0.6l-0.9-0.2L7,20.4c0.2,0.1,0.4,0.1,0.6,0.2
		l0.5,0.2l2.2,0.7l2.2,0.8l2.2,0.7c-1.8,1.6-3.6,3.2-5.2,5c-0.3,0.3-0.6,0.7-0.9,1c0,0-0.1,0.1-0.1,0.1l-0.2,0.2
		c0,0-0.4,0.3-0.5,0.4c-0.1,0.1,0,0.3,0.2,0.5c0.2,0.1,0.4,0.2,0.5,0.1c0.1-0.2,0.2-0.4,0.4-0.6c0,0,0.1-0.1,0.1-0.1l0.1-0.1
		l0.3-0.2l7-5.6c0,0,0.1-0.1,0.1-0.1l0.1,0l0.2,0.1l-1.6,1.8L14.7,26l-0.8,0.9c-0.1,0.1-0.3,0.3-0.4,0.5c0,0,0.1-0.1,0.1-0.1
		c-1,1-3,3.1-3,3.1l0.1,0.1c-0.5,0.4-0.9,0.9-1.4,1.3L9.4,32l-0.6,0.5c0,0-0.1,0.1-0.1,0.1c-0.1,0.1,0,0.3,0.2,0.6
		c0.2,0.2,0.4,0.3,0.5,0.3c-0.3,0.3-0.7,0.7-1.1,1l-0.1,0.2c-0.1,0.1-0.2,0.5-0.1,0.7c0,0,0.1,0.1,0.1,0.2l-0.8,0.7l-0.1,0.1
		c-0.1,0.1-0.1,0.2,0.1,0.4c0.1,0.2,0.3,0.3,0.4,0.2l0,0c0,0.1,0,0.2,0.1,0.3c0.1,0.1,0.2,0.2,0.3,0.2c0,0,0,0,0,0c0,0,0,0,0,0
		L11,35c0.3-0.2,0.6-0.5,0.9-0.7c-0.3,0.4-0.6,0.8-0.8,1.2L11,35.6c-0.1,0.1-0.2,0.2-0.4,0.4l-0.8,0.7l-0.6,0.6l-0.1,0.1
		c-0.2,0.2-0.2,0.6,0,0.8l0,0c0,0,0,0,0.1,0c0,0,0,0,0,0h0c0,0,0,0,0,0h0.1c0,0,0,0,0,0h0.1l0,0h0l0,0c0,0,0,0,0,0c0,0,0,0,0,0
		c0,0,0,0,0,0l0,0c0,0,0,0,0.1,0l0,0c0,0,0,0,0,0l0,0l0,0l0,0v0c0,0,0,0,0,0l0,0l0,0c0,0,0,0,0,0l0,0c0,0,0,0,0,0c0,0,0,0,0,0l0-0.1
		l0,0c0,0,0,0,0.1-0.1c0,0,0,0,0,0c0,0,0,0,0-0.1c0,0,0,0,0-0.1l0.1-0.1c0,0,0,0,0-0.1c0,0,0,0,0.1,0c0,0,0,0,0-0.1l0.1-0.1l0.1-0.1
		c0,0,0,0,0-0.1l0.1-0.1c0,0,0,0,0.1-0.1c0,0,0,0,0-0.1l0.1-0.1l0-0.1l0-0.1c0,0,0,0,0.1,0c0,0,0,0,0-0.1c0,0,0,0,0-0.1
		c0,0,0,0,0-0.1c0,0,0,0,0-0.1l0,0c0,0,0,0,0,0l0,0c0.1-0.1,0.2-0.3,0.3-0.4c0.1-0.1,0.2-0.2,0.4-0.3l1.1-1l1.1-1.1l0.4-0.3l0.7-0.7
		c0.1-0.1,0.2-0.2,0.4-0.4l0.7-0.7l1.1-1c0,0,0.1-0.1,0.2-0.2l0.5-0.5l0.4-0.4l0.2-0.2c0.4-0.3,0.8-0.6,1.2-1l1.4-1.1
		c-3.2,3.3-6.5,6.6-9.6,10l-0.1,0v0v0l2.7-2.7l1.7-1.7c0.4-0.3,0.7-0.7,1-1c0.5-0.4,0.9-0.9,1.3-1.3l2.7-2.7l1.3-1.3
		c0,0,0,0,0.1-0.1c0,0.1,0.1,0.1,0.1,0.2c0,0,0,0.1,0,0.2l0.1,0.5c0.2,1.5,0.4,3.5,0.4,3.7l0.2,1.7c0.2,1.3,1.1,6.5,1.3,6.8
		c0.1,0.2,0.2,0.3,0.5,0.4s0.4-0.2,0.5-0.4c0-0.2-0.1-0.5-0.1-0.8v-2.5l-0.1-1.1c-0.1-0.7-0.2-1.4-0.3-2.2c0-0.2-0.1-1.3-0.1-1.5
		c1.1,2.2,3.4,6.7,3.4,6.7c0,0.1,0.2,0.1,0.5,0c0.2-0.1,0.4-0.2,0.3-0.3c-0.9-2.3-1.8-4.5-2.8-6.8c0.6,0.8,1.2,1.6,1.8,2.4
		c0,0,0.1,0.1,0.1,0.2c0,0.1,0.1,0.1,0.1,0.2c0.4,0.9,0.8,1.7,1.1,2.6c-0.5-0.8-0.9-1.7-1.3-2.7c0,0,0,0,0,0
		c0.2,0.6,0.5,1.3,0.8,1.9c0.3,0.6,0.6,1.2,0.9,1.7c0.2,0.3,0.3,0.5,0.5,0.8c0.1,0.2,0.3,0.3,0.5,0.5c0.2,0.1,0.5,0.3,0.8,0.2
		c0.2,0,0.3-0.1,0.4-0.3c0.1-0.1,0.2-0.3,0.2-0.5c0-0.2,0-0.4-0.1-0.5l0.5-0.2l0.1,0l-1.1-2.3l-1.1-2.3l-1.1-2.3
		c-0.4-0.8-0.8-1.5-1.1-2.3l0.4,0.1c1.6,3.4,3.2,6.7,4.9,10c0,0,0,0,0,0c-1.5-3.3-3.1-6.6-4.6-9.9l5.2,1.7l-2.7-1l-2.7-0.9
		c-0.1-0.2-0.2-0.4-0.3-0.6l2.4,0.7l0.3,0.1c1.2,0.4,2.3,0.7,3.5,1l0.7,0.2l1.3,0.5c0.5,0.2,0.9,0.3,1.3,0.5c0.3,0.1,0.7,0.2,1,0.4
		l0.2,0.1h0.1c0.2,0,0.5-0.4,0.7-1c0.2-0.6,0.2-1.2-0.1-1.3l-0.2,0c0.1-0.3,0-0.5-0.1-0.5l-5.6-1.8l-0.8-0.2l-3.1-1l0.4,0l2.1,0.7
		l2.2,0.7l2.1,0.7l0.1,0c0.1,0,0.1-0.1,0.2-0.2c0-0.1,0-0.2,0-0.3c0,0,0,0,0,0l0,0L36.6,26l-2.1-0.7l-1.4-0.5l-0.5-0.2
		C37.1,24.5,42,24.1,40.1,23.8L40.1,23.8z M0.8,18.6C0.8,18.6,0.8,18.6,0.8,18.6L0.8,18.6c0.7,0.2,1.4,0.4,2,0.6c0,0,0,0,0.1,0
		L0.8,18.6L0.8,18.6z"/>
</g>
</svg>
