<?xml version="1.0" encoding="utf-8"?>
<!-- Generator: Adobe Illustrator 18.0.0, SVG Export Plug-In . SVG Version: 6.00 Build 0)  -->
<!DOCTYPE svg PUBLIC "-//W3C//DTD SVG 1.1//EN" "http://www.w3.org/Graphics/SVG/1.1/DTD/svg11.dtd">
<svg version="1.1" id="Layer_1" xmlns="http://www.w3.org/2000/svg" xmlns:xlink="http://www.w3.org/1999/xlink" x="0px" y="0px"
	 viewBox="7.6 142.5 490.1 119.2" enable-background="new 7.6 142.5 490.1 119.2" xml:space="preserve">
<g transform="translate(0.000000,354.000000) scale(0.100000,-0.100000)">
	<path fill="#173EE2" d="M3379.5,2113.4c-32.5-5.8-58.1-17.5-72-32.9c-16.1-17.9-25.9-48.6-22.3-70.5c7.3-43.5,36.5-65,122-88.4
		c42-11.7,58.8-23.4,58.8-40.2c0-21.9-17.2-34.7-46.7-34.7c-23.4,0-40.2,11-51.5,34.3l-8.8,17.9l-29.6-2.6
		c-16.4-1.1-35.8-2.2-43.8-2.2h-14.2l2.6-15c5.1-32.9,33.2-69.8,61.7-81.8c20.8-8.8,91.3-13.9,121.3-9.1
		c62.8,9.9,101.5,49.3,101.2,103.4c0,56.6-27.8,81.4-119.8,106.6c-25.6,6.9-50,15-54.8,17.9c-32.5,21.5,13.5,54.8,49.7,36.2
		c7.3-3.7,15.7-12.4,20.1-20.5l7.3-14.2l38.3,2.6c53.7,3.3,51.9,2.2,45.7,22.3c-13.9,46-49.7,68.3-116.9,72.3
		C3411.6,2116,3390.1,2115.2,3379.5,2113.4z"/>
	<path fill="#173EE2" d="M78.5,2081.6c11-122.7,57-225.7,138.1-310.4c61.4-63.9,131.1-105.9,219.9-132.6c20.5-6.2,32.9-12.1,32.9-15
		c0-4.4-33.2-5.1-196.1-6.2l-196.5-0.7v-96.8v-96.8l196.1-0.7c171.7-1.1,196.5-1.8,197.6-6.6c0.7-4-5.5-7.3-22.3-11.7
		c-162.2-42.4-296.6-170.6-347.3-331.3c-9.9-31.4-26.7-134.4-22.3-138.4c1.5-1.5,45.7-2.9,98.2-3.7l96.1-1.1l2.2,24.8
		c6.9,72,40.5,138.8,96.4,191c27,25.2,79.3,58.4,92,58.4h7.7v-137v-137h98.6h98.6v138.8c0,93.1,1.1,138.8,3.7,138.8
		c2.2,0,12.4-4.4,23-9.5c70.1-35.4,123.4-90.9,151.6-159.6c11.7-28.1,22.6-74.1,22.6-95.7v-12.8h97.5h97.2l-2.2,34
		c-5.5,82.2-35.1,167.6-82.5,237.8c-65,95.3-156.3,162.5-269.9,198c-25.9,8-40.9,14.6-39.8,17.2c1.1,3.3,51.1,4.7,197.2,5.5
		l196.1,0.7v96.8v96.8l-196.1,0.7c-142.8,0.7-196.1,2.2-197.2,5.1c-0.7,2.6,15.3,9.5,40.9,17.5c84.4,26.7,154.5,70.5,216.2,134.8
		c81.1,85.1,125.3,184.1,134.4,303.1l2.6,31.8h-96.8h-97.2l-2.2-20.8c-5.5-52.2-20.1-95-46-134.4c-21.9-34-44.9-59.2-74.1-81.1
		c-21.5-16.1-67.6-41.3-75.2-41.3c-2.6,0-3.7,46.4-3.7,138.8v138.8h-98.6h-98.6V1971c0-100.8-1.1-138.8-4-138.8
		c-2.6,0-20.1,8.8-39.1,19.4c-53,28.9-97.2,75.6-126.7,133.7c-12.4,24.8-27.4,83.3-27.4,106.6v17.9h-99H76L78.5,2081.6z"/>
	<path fill="#173EE2" d="M1329.4,2039.6c0.4-86.2,4.7-153,12.1-173.8c12.8-36.2,39.4-60.6,79.3-72.7c27.8-8.4,103.4-8,132.9,0.4
		c25.9,7.7,56.6,34.7,70.9,62.5c8.4,16.8,9.5,23.7,12.1,84c1.5,36.2,2.9,89.1,2.9,118l0.4,51.9h-49.3h-49.3v-104.8
		c0-115.4-1.1-121.6-22.6-137.3c-23-16.8-63.9-10.2-81.1,13.1c-7.3,9.9-7.7,15.7-8.8,119.8l-1.1,109.2h-49.3h-48.9V2039.6z"/>
	<path fill="#173EE2" d="M1705.6,2063.4c0-25.9,1.1-97.2,2.6-158.9l2.2-112.5h43.5h43.1l0.4,12.1c0.4,6.2,1.8,45.3,2.9,86.6
		l2.2,74.9l60.3-89.1l60.3-88.8l43.8,2.2c23.7,1.5,43.8,2.9,44.2,3.3s1.5,72,2.6,158.9l2.2,157.8h-47.5h-47.1l-0.7-88.4l-1.1-88.8
		l-59.9,88.8l-60.3,88.4h-46.7h-46.7V2063.4z"/>
	<path fill="#173EE2" d="M2085.5,1949.1v-160.7h49.3h49.3v160.7v160.7h-49.3h-49.3V1949.1z"/>
	<path fill="#173EE2" d="M2233.4,2105.4c-1.1-2.6,24.5-73.8,56.2-157.8c49.3-130.4,59.5-153.8,66.8-156.7c4.4-1.8,28.9-2.2,54.1-0.7
		l45.7,2.6l58.8,158.5l58.8,158.5h-42.4c-51.5,0-57.3-1.5-60.6-13.9c-6.2-26.7-65.4-212.6-67.6-212.6c-1.1,0-13.5,35.1-27,77.8
		c-13.5,42.4-29.9,93.5-36.2,113.2l-11.3,35.4H2282C2247.6,2109.8,2234.5,2108.7,2233.4,2105.4z"/>
	<path fill="#173EE2" d="M2609.6,1952c1.5-86.9,2.9-158.5,2.9-158.9c0.4,0,61-1.5,135.1-2.9l134-2.9v37.3v36.9H2794h-87.7v32.9v32.9
		h78.5h78.5v31v31l-77.4,0.7l-77.8,1.1v25.6v25.6l83.3,1.1l82.9,0.7v32.9v32.9h-133.7h-134L2609.6,1952z"/>
	<path fill="#173EE2" d="M2936.4,1949.8v-161.4h49.3h49.3v65.7v65.7h13.5c19,0,34-17.5,66.8-79.6l27.4-51.9h50.4
		c41.3,0,50.8,1.1,52.2,5.5c2.6,6.6-46,97.9-59.9,112.5c-5.5,5.8-15.3,13.9-22.3,17.9l-12.1,7.7l21.2,9.9
		c35.8,16.1,52.6,41.6,52.6,80.4c0,24.1-6.2,42.4-19.4,57.3c-21.9,24.8-27.8,25.9-155.2,28.9l-114,2.6V1949.8z M3115,2037.8
		c7.7-5.8,9.5-10.2,9.5-23c0-23-10.2-29.6-52.6-32.5l-33.2-2.2v34.3v34.3l33.2-1.8C3097.2,2045.5,3107.4,2043.3,3115,2037.8z"/>
	<path fill="#173EE2" d="M3615.8,1949.1v-160.7h49.3h49.3v160.7v160.7h-49.3h-49.3V1949.1z"/>
	<path fill="#173EE2" d="M3791.1,1949.4v-161.1h59.5c69.4,0.4,125.3,5.1,149.4,13.1c38,12.4,67.2,45.7,78.2,89.1
		c8,32.1,5.5,102.3-5.1,132.2c-14.6,41.3-39.4,66.5-76.3,78.5c-13.5,4.4-39.4,6.2-111.4,7.7l-94.2,1.5V1949.4z M3947,2032.7
		c29.6-11,39.4-37.3,36.9-96.8c-2.6-57.7-13.5-70.1-65.7-73.4l-28.5-2.2v88.4v88h23.4C3926.2,2036.7,3941.2,2034.9,3947,2032.7z"/>
	<path fill="#173EE2" d="M4237.4,2107.2c-10.6-2.2-8,3.7-73.8-172c-38.7-103-51.5-140.6-48.2-143.9c2.9-2.9,16.4-2.9,48.6-0.7
		l44.6,3.3l7.7,23.7l7.7,23.7h58.1h58.1l7.7-26.3l7.7-26.7h43.8c24.1,0,46,1.5,48.9,3.3c4.4,2.9-4.7,31-53,160l-58.1,156.3
		l-45.7,0.4C4266.3,2108.7,4242.1,2108.3,4237.4,2107.2z M4300.2,1964.4l16.1-51.9H4282c-19,0-34.3,0.7-34.3,1.8
		c0,2.6,28.5,96.4,31.4,104.1C4282,2025,4280.5,2027.9,4300.2,1964.4z"/>
	<path fill="#173EE2" d="M4492.3,1949.8v-161.4h34c70.9,0.4,161.1,6.9,179,13.1c24.5,8.4,54.1,36.5,65.7,62.5
		c12.8,28.5,18.6,76.3,13.9,113.6c-7.3,59.2-30.7,97.9-70.5,117.2l-23,11.3l-99.3,2.2l-99.7,2.6V1949.8z M4657,2029
		c23-11.7,30.3-31.4,30.3-82.2c0-33.2-1.5-42.7-7.3-54.4c-12.1-23.4-21.9-28.5-57-28.9l-30.3-0.4l-1.1,86.9l-0.7,86.6h25.6
		C4635.5,2036.7,4646.5,2034.5,4657,2029z"/>
	<path fill="#173EE2" d="M2079.3,1677c-57-15.3-88.4-50.4-101.2-112.5c-9.9-47.1-5.5-90.9,12.1-128.6
		c22.6-48.2,58.4-72.7,115.8-79.6c38-4.7,81.8,0.4,106.3,12.4c21.5,10.6,48.2,37.6,58.1,59.9c14.2,31.8,14.6,31.8-19.7,42.7
		c-52.6,16.8-48.9,17.2-61.4-6.9c-14.2-27.8-28.9-37.6-56.2-37.6c-24.5,0-40.9,9.1-52.6,29.2c-6.2,10.6-8,20.5-9.1,55.5
		c-1.1,39.4-0.4,44.2,8,62.8c23,50,86.2,50.4,114,0.7c4-6.9,5.1-6.6,42,1.5c21.2,4.7,39.4,9.5,41.3,11c3.7,2.9-12.8,35.1-26.7,52.2
		c-14.6,17.5-39.1,31.8-65.4,37.6C2158.1,1683.9,2103.7,1683.5,2079.3,1677z"/>
	<path fill="#173EE2" d="M2808.6,1677.3c-78.2-22.6-115-85.1-107.4-182.2c1.8-25.6,4.7-37.3,14.2-56.6
		c13.5-28.9,38.7-55.5,65.4-69.4c18.3-9.5,20.1-9.9,82.5-9.9c63.2,0,64.3,0,83.6,10.2c55.5,29.2,82.2,78.5,82.2,152.3
		c0,74.5-34,128.2-95.3,150.5C2907.2,1681.7,2834.2,1685,2808.6,1677.3z M2897.7,1601c23.4-13.1,32.5-34.7,32.5-78.5
		c0-53.3-10.6-78.9-37.6-89.8c-19.4-7.7-38.3-7.3-57,1.1c-26.7,12.1-38,36.9-38,84.7c0,46.7,13.5,76.3,40.2,86.9
		C2854.3,1612,2882.4,1609.8,2897.7,1601z"/>
	<path fill="#173EE2" d="M3485,1676.6c-23-6.2-29.9-9.5-52.6-25.9c-52.2-38-71.6-130.4-42.7-207.1c9.9-27,38.3-57.7,66.8-72.7
		l22.3-11.7h62.1h62.1l24.5,12.1c46.7,23,69.8,59.9,76.7,123.8c10.6,97.2-32.1,166.2-113.2,183.3
		C3564.6,1683.9,3508.8,1683.2,3485,1676.6z M3569.4,1604.3c25.9-11,39.1-38,39.1-81.1c0-53-10.2-76.7-38-89.5
		c-29.2-13.1-65-4.7-81.4,19.4c-12.1,18.3-17.9,58.4-13.1,90.6c6.9,44.6,27.4,65.4,64.3,65.7
		C3549.7,1609.4,3562.8,1607.2,3569.4,1604.3z"/>
	<path fill="#173EE2" d="M3864.1,1677.7c-28.9-8.4-51.5-21.9-70.9-43.1c-22.3-24.1-33.6-50.4-38.7-90.9
		c-12.4-100.8,38.3-173.8,129.7-186.6c61-8.4,122.4,4,173.5,35.1l21.9,13.1v67.6v67.2h-76.7h-76.7v-31v-31h32.9h32.9v-18.3V1441
		l-17.2-7.7c-20.8-9.1-61-12.8-78.9-6.9c-33.2,11-48.9,47.8-45.7,107c2.2,37.3,12.8,59.2,34.3,72.7c27.4,16.8,72.3,10.2,87.3-12.8
		c7.7-11.7,17.9-12.1,64.3-3.7c27.4,5.1,32.5,6.9,32.5,13.1c0,20.8-31,56.2-61.7,69.8c-13.9,6.2-25.9,7.7-71.6,8.8
		C3898.1,1682.1,3875.5,1681,3864.1,1677.7z"/>
	<path fill="#173EE2" d="M4411.6,1677.3c-69.8-19.4-105.6-73.4-105.6-158.9c0-55.9,16.4-97.5,50.4-128.6c27.4-24.8,57.3-34,112.1-34
		c70.1,0,105.2,17.9,131.1,67.6c8.8,16.4,13.5,29.9,12.1,33.2c-1.8,5.5-65,28.5-77.4,28.5c-2.2,0-6.2-6.2-8.8-13.5
		c-12.1-34-32.5-47.1-68.7-44.2c-16.8,1.5-21.9,3.7-32.1,14.2c-29.2,29.2-31.8,113.2-4.7,147.6c9.5,12.1,33.2,23.7,48.6,23.7
		c18.3,0,40.2-12.4,49.3-27.8c4.7-8,9.1-15,9.5-15.3c0.4-0.7,19,2.6,41.3,6.9c27.4,5.8,40.5,9.9,40.5,13.1c0,6.2-13.1,32.5-23,45.7
		c-11.3,15-41.6,34.3-64.3,40.9C4497.8,1683.5,4436.1,1683.9,4411.6,1677.3z"/>
	<path fill="#173EE2" d="M1307.5,1640.4v-38.3h51.1h51.1v-122.4v-122.4h49.3h49.3v122.4v122.4h51.1h51.1v38.3v38.3h-151.6h-151.6
		V1640.4z"/>
	<path fill="#173EE2" d="M1658.1,1518.1v-160.7h135.1h135.1v36.5v36.5h-87.7h-88l1.1,32.1l1.1,31.8l77.8,1.1l77.4,0.7v31v31
		l-77.4,0.7l-77.8,1.1v25.6v25.6l83.3,1.1l82.9,0.7v32.9v32.9h-131.5h-131.5V1518.1z"/>
	<path fill="#173EE2" d="M2333.8,1518.1v-160.7h45.7h45.7v87.7c0,48.2,1.1,87.7,2.9,87.7c2.9-0.4,5.8-4.4,71.2-100.4
		c25.9-38,47.5-69.8,47.5-70.1c0.4-0.4,21.5-1.5,47.5-2.9l46.4-2.9v161.4v161.1H2595h-45.7v-88.4l-0.4-88.8l-8.4,10.2
		c-4.7,5.8-32.1,45.7-61,88.4l-52.6,78.2l-46.4,0.4h-46.7V1518.1z"/>
	<path fill="#173EE2" d="M3086.2,1518.1v-160.7h126h126v38.3v38.3h-76.7h-76.7v122.4v122.4h-49.3h-49.3V1518.1z"/>
	<path fill="#173EE2" d="M4145.4,1518.1v-160.7h47.5h47.5v160.7v160.7h-47.5h-47.5V1518.1z"/>
	<path fill="#173EE2" d="M4748.7,1659.8c-4-10.6-30.7-81.4-59.2-157.4c-36.5-97.2-50.8-139.5-48.2-142.1s17.9-2.9,48.6-0.7l44.9,3.3
		l7.3,23.7l7.7,23.7h58.1h58.1l7.7-26.3l7.7-26.7h42c23,0,45.7,1.1,49.7,2.2c8.8,2.2,12.1-7.7-75.6,226.8l-34.3,92.4h-53.7h-53.7
		L4748.7,1659.8z M4825.8,1536l15.7-52.6l-32.5-1.1c-17.9-0.4-33.2-0.4-34,0.4c-0.7,0.7,0,6.2,1.8,12.1c2.2,5.8,9.5,29.9,16.8,53.7
		s14.2,42.7,15,41.6C4809.4,1589.3,4817.4,1564.8,4825.8,1536z"/>
	<path fill="#173EE2" d="M2157.4,1247.5c-35.1-8.4-74.5-38-89.8-68.7c-25.2-48.6-24.8-131.1,0-180.1c11.3-22.3,38.3-48.9,59.5-59.5
		c27-13.1,76.7-19,116.1-13.5c35.8,5.1,55.9,14.2,76.3,34.7c15,15,36.2,53,36.2,65c0,4.4-11,9.1-40.2,17.9
		c-22.3,6.6-40.5,11.3-41.3,10.6c-0.4-0.7-5.5-11-11-22.6c-12.4-26.3-25.9-35.4-53-35.4c-27,0-42.7,8.4-54.8,28.9
		c-9.1,15.3-9.9,19.7-9.9,57c0,60.6,13.1,86.2,48.9,97.2c21.9,6.6,39.8,1.5,57.3-16.1c8-8.4,15.7-17.5,16.8-20.5
		c1.5-4.7,7.7-4,40.9,3.3c21.5,4.7,40.2,10.6,41.3,13.1c2.6,7.3-16.4,39.8-33.2,56.2c-17.5,17.5-37.6,27.8-63.9,32.9
		C2230.5,1252.2,2176.8,1252.2,2157.4,1247.5z"/>
	<path fill="#173EE2" d="M2685.5,1246c-57.7-15.7-90.2-48.6-105.2-106.6c-6.9-25.9-6.9-77.1-0.4-101.5
		c22.3-84.4,81.4-120.5,184.1-112.9c95.3,6.9,146.1,74.5,138.1,184.8c-1.1,17.9-5.5,40.5-9.9,51.9c-14.6,39.8-59.5,76.3-104.8,85.8
		C2761.1,1252.9,2708.5,1252.2,2685.5,1246z M2765.9,1173.3c15.3-6.2,30.3-24.1,35.4-41.6c4.7-17.5,4.7-71.6,0-89.1
		c-17.5-62.1-106.6-62.1-124.2,0c-5.8,21.2-4.7,78.9,1.8,95C2693.9,1172.6,2731.2,1187.9,2765.9,1173.3z"/>
	<path fill="#173EE2" d="M1329.4,1087.1V926.4h47.5h47.5v86.2c0,71.2,0.7,85.8,4.7,82.2c2.9-2.2,30.3-40.9,61-86.2l56.6-82.2h44.6
		h44.9v160.7v160.7h-45.7h-45.7v-88c0-48.2-1.1-86.9-2.6-86.2c-1.8,1.1-29.2,40.5-61.4,88l-58.4,86.2h-46.4h-46.7V1087.1z"/>
	<path fill="#173EE2" d="M1795.8,1245.3c-3.7-5.8-115.8-307.2-115.8-310.8c0-6.2,11-8,52.6-8h41.3l8,27.4l8,27.4h57.3h57.7l8.8-27.4
		l8.8-27.4h48.6c34.3,0,48.6,1.1,48.6,4.4c0,2.9-111.8,307.2-114.7,312.3C1903.2,1245.6,1797.3,1247.8,1795.8,1245.3z
		 M1864.1,1111.6c7.7-26.3,15-51.1,16.1-54.4c1.5-5.8-1.8-6.6-31.8-6.6c-18.3,0-33.2,1.1-33.2,2.9c0,5.5,31,106.6,32.9,106.6
		C1849.2,1160.2,1856.5,1138.2,1864.1,1111.6z"/>
	<path fill="#173EE2" d="M2414.2,1087.1V926.4h49.3h49.3v160.7v160.7h-49.3h-49.3V1087.1z"/>
	<path fill="#173EE2" d="M2962,1087.5V926.4h45.7h45.7v88.8l0.4,88.4l8.4-10.2c4.7-5.8,32.1-45.7,61-88.4l52.6-78.2l46.7-0.4h46.4
		v160.7v160.7h-45.7h-45.7v-87.7c0-48.2-1.1-87.7-2.6-87.7c-3.3,0.4-6.2,4.4-71.6,100.4c-25.9,38.3-47.5,69.8-47.5,70.1
		c-0.4,0.4-21.5,1.5-47.1,2.9l-46.7,2.9V1087.5z"/>
	<path fill="#173EE2" d="M3419.3,1228.8c-99.3-264.1-110.7-296.2-107.4-299.5c2.6-2.6,18.3-2.9,48.6-0.7l44.9,3.3l7.3,23.7l7.7,23.7
		h58.1h58.1l7.7-26.7l7.7-26.3h42c23,0,45.3,1.1,49.7,2.2c8.8,2.2,13.5-12.1-74.1,223.2l-35.8,96.1h-53.7h-53.7L3419.3,1228.8z
		 M3496.3,1105l15.7-52.6l-32.5-1.1c-17.9-0.4-33.2-0.4-34,0.4s1.1,8.4,3.7,17.5c2.9,8.8,10.6,33.2,16.8,53.7
		c6.2,20.8,12.1,37.3,13.1,36.5C3479.9,1158.3,3487.9,1133.9,3496.3,1105z"/>
	<path fill="#173EE2" d="M3688.8,1087.1V926.4h126h126v38.3v38.3h-76.7h-76.7v122.4v122.4h-49.3h-49.3V1087.1z"/>
</g>
</svg>
